<?xml version="1.0" encoding="utf-8"?>
<!-- Generator: Adobe Illustrator 16.0.0, SVG Export Plug-In . SVG Version: 6.00 Build 0)  -->
<!DOCTYPE svg PUBLIC "-//W3C//DTD SVG 1.1//EN" "http://www.w3.org/Graphics/SVG/1.1/DTD/svg11.dtd">
<svg version="1.1"
	 id="svg2275" inkscape:version="0.48.0 r9654" sodipodi:docname="Map_of_USA_with_state_names.svg" xmlns:dc="http://purl.org/dc/elements/1.1/" xmlns:svg="http://www.w3.org/2000/svg" xmlns:inkscape="http://www.inkscape.org/namespaces/inkscape" xmlns:cc="http://creativecommons.org/ns#" xmlns:sodipodi="http://sodipodi.sourceforge.net/DTD/sodipodi-0.dtd" xmlns:rdf="http://www.w3.org/1999/02/22-rdf-syntax-ns#"
	 xmlns="http://www.w3.org/2000/svg" xmlns:xlink="http://www.w3.org/1999/xlink" x="0px" y="0px" width="958.689px"
	 height="592.79px" viewBox="0 0 958.689 592.79" enable-background="new 0 0 958.689 592.79" xml:space="preserve">
<style>
.state
{
	position: relative;
	pointer-events: all;
  -webkit-transition: all .1s ease-in-out;
     -moz-transition: all .1s ease-in-out;
       -o-transition: all .1s ease-in-out;
          transition: all .1s ease-in-out;
}

.state:hover
{
	fill: #ffd91f;
}
</style>
<path class="state" id="HI" fill="#FFFFD0" d="M224.081,523.11l1.883-3.469l2.197-0.316l0.314,0.789l-2.04,2.996H224.081z M233.967,519.483
	l5.963,2.523l2.04-0.316l1.569-3.783l-0.628-3.311l-4.08-0.475l-3.923,1.734L233.967,519.483L233.967,519.483z M263.783,529.258
	l3.609,5.361l2.354-0.316l1.098-0.473l1.413,1.262l3.609-0.158l0.941-1.418l-2.825-1.734l-1.883-3.627l-2.04-3.469l-5.649,2.838
	L263.783,529.258L263.783,529.258z M283.399,537.93l1.255-1.893l4.551,0.947l0.627-0.477l5.963,0.631l-0.314,1.264l-2.511,1.42
	l-4.237-0.316L283.399,537.93z M288.578,542.975l1.883,3.785l2.981-1.105l0.314-1.576l-1.569-2.049l-3.609-0.316V542.975
	L288.578,542.975z M295.326,541.872l2.197-2.838l4.551,2.365l4.236,1.104l4.237,2.68v1.895l-3.453,1.732l-4.708,0.945l-2.354-1.418
	L295.326,541.872L295.326,541.872z M311.489,557.008l1.568-1.262l3.296,1.576l7.376,3.469l3.296,2.051l1.567,2.363l1.884,4.258
	l3.924,2.523l-0.313,1.26l-3.767,3.154l-4.08,1.418l-1.412-0.631l-2.981,1.732l-2.354,3.154l-2.196,2.838l-1.727-0.158l-3.452-2.52
	l-0.314-4.416l0.628-2.365l-1.568-5.52l-2.04-1.732l-0.157-2.521l2.197-0.947l2.04-2.996l0.471-0.945l-1.569-1.734L311.489,557.008
	L311.489,557.008z"/>
<path class="state" id="AK" fill="#F2D0FF" d="M151.266,459.096l-0.313,83.248l1.569,0.947l2.982,0.156l1.412-1.105h2.511l0.157,2.838l6.748,6.623
	l0.471,2.521l3.295-1.891l0.628-0.158l0.313-2.996l1.413-1.576l1.098-0.158l1.883-1.418l2.982,2.049l0.627,2.838l1.883,1.105
	l1.098,2.365l3.767,1.732l3.295,5.834l2.667,3.783l2.197,2.682l1.412,3.625l4.865,1.734l5.022,2.051l0.941,4.256l0.471,2.996
	l-0.941,3.312l-1.726,2.207l-1.569-0.787l-1.413-2.996l-2.667-1.42l-1.727-1.105l-0.784,0.789l1.412,2.682l0.157,3.627l-1.098,0.473
	l-1.883-1.893l-2.04-1.262l0.471,1.576l1.255,1.734l-0.785,0.787c0,0-0.785-0.314-1.255-0.945c-0.47-0.631-2.04-3.311-2.04-3.311
	l-0.941-2.207c0,0-0.314,1.262-0.941,0.945c-0.628-0.314-1.256-1.418-1.256-1.418l1.727-1.893l-1.413-1.42v-4.889h-0.785
	l-0.785,3.312l-1.098,0.473l-0.942-3.625l-0.627-3.627l-0.785-0.473l0.314,5.518v1.104l-1.413-1.262l-3.453-5.832l-2.04-0.475
	l-0.627-3.625l-1.569-2.838l-1.569-1.104v-2.209l2.04-1.262l-0.471-0.314l-2.511,0.631l-3.295-2.365l-2.511-2.838l-4.708-2.521
	l-3.923-2.523l1.255-3.152v-1.578l-1.726,1.578l-2.825,1.105l-3.609-1.105l-5.492-2.363h-5.336l-0.627,0.473l-6.277-3.785
	l-2.04-0.314l-2.667-5.676l-3.453,0.314l-3.452,1.42l0.471,4.414l1.099-2.838l0.941,0.314l-1.413,4.256l3.139-2.68l0.628,1.576
	l-3.767,4.258l-1.255-0.314l-0.471-1.895l-1.255-0.787l-1.255,1.105l-2.667-1.734l-2.982,2.049l-1.726,2.051l-3.295,2.049
	l-4.551-0.158l-0.471-2.049l3.609-0.631v-1.262l-2.197-0.631l0.941-2.363l2.197-3.785v-1.734l0.157-0.787l4.237-2.209l0.942,1.262
	h2.667l-1.255-2.52l-3.609-0.316l-4.865,2.682l-2.354,3.311l-1.726,2.521l-1.098,2.207l-4.081,1.42l-2.981,2.523l-0.314,1.576
	l2.197,0.945l0.785,2.051l-2.668,3.152l-6.277,4.1l-7.533,4.1l-2.04,1.104l-5.179,1.104l-5.179,2.207l1.727,1.264l-1.413,1.418
	l-0.471,1.104l-2.668-0.947l-3.138,0.158l-0.785,2.207h-0.942l0.314-2.365l-3.452,1.264l-2.825,0.943l-3.295-1.26l-2.825,1.893
	H42.83l-2.04,1.262l-1.569,0.789l-2.04-0.316l-2.511-1.104l-2.197,0.631l-0.941,0.945l-1.569-1.105v-1.891l2.982-1.262l6.12,0.631
	l4.237-1.578l2.04-2.049l2.825-0.631l1.726-0.789l2.668,0.158l1.569,1.262l0.941-0.314l2.197-2.682l2.982-0.945l3.295-0.631
	l1.255-0.314l0.628,0.475h0.785l1.255-3.627l3.923-1.42l1.883-3.627l2.197-4.414l1.569-1.42l0.314-2.521l-1.569,1.262l-3.295,0.631
	l-0.627-2.365l-1.256-0.314l-0.941,0.945l-0.157,2.838l-1.413-0.158l-1.412-5.676l-1.255,1.262l-1.099-0.473l-0.314-1.893
	l-3.923,0.158l-2.041,1.104l-2.511-0.314l1.413-1.42l0.471-2.521l-0.628-1.893l1.413-0.945l1.255-0.158l-0.628-1.732v-4.258
	l-0.941-0.945l-0.785,1.418h-5.963l-1.412-1.26l-0.628-3.785l-2.04-3.469v-0.945l2.04-0.789l0.157-2.049l1.099-1.105l-0.785-0.473
	l-1.256,0.473l-1.098-2.682l0.941-4.887l4.394-3.152l2.511-1.578l1.883-3.625l2.667-1.262l2.511,1.104l0.313,2.365l2.354-0.314
	l3.139-2.365l1.569,0.631l0.941,0.631h1.569l2.197-1.262L75,496.149c0,0,0.314-2.838,0.942-3.311
	c0.627-0.475,0.941-0.947,0.941-0.947L75.784,490l-2.511,0.787l-3.139,0.789l-1.883-0.473l-3.453-1.734l-4.865-0.158l-3.452-3.627
	l0.471-3.783l0.627-2.365l-2.04-1.734l-1.883-3.627l0.471-0.787l6.591-0.473h2.04l0.941,0.945h0.628l-0.157-1.576l3.766-0.631
	l2.511,0.314l1.412,1.104l-1.412,2.051l-0.471,1.418l2.667,1.578l4.865,1.732l1.727-0.945l-2.197-4.256l-0.941-3.154l0.941-0.789
	l-3.295-1.891l-0.471-1.104l0.471-1.578l-0.785-3.783l-2.825-4.572l-2.354-4.1l2.825-1.895h3.139l1.726,0.633l4.081-0.156
	l3.609-3.469l1.099-2.996l3.609-2.365l1.569,0.945l2.667-0.631l3.609-2.051l1.099-0.156l0.941,0.787l4.394-0.156l2.668-2.996h1.098
	l3.453,2.365l1.883,2.051l-0.471,1.104l0.627,1.104l1.569-1.576l3.766,0.314l0.314,3.627l1.883,1.418l6.905,0.631l6.12,4.1
	l1.412-0.945l5.022,2.521l2.04-0.631l1.883-0.787l4.708,1.891l4.237,2.84v-0.002H151.266z M39.534,487.319l2.04,5.203l-0.157,0.945
	l-2.824-0.314l-1.727-3.941l-1.726-1.42h-2.354l-0.157-2.52l1.726-2.365l1.099,2.365l1.412,1.418L39.534,487.319z M37.023,519.956
	l3.609,0.789l3.609,0.945l0.785,0.947l-1.569,3.625l-2.981-0.156l-3.295-3.469L37.023,519.956z M16.937,506.239l1.099,2.523
	l1.099,1.576l-1.099,0.789l-2.04-2.996v-1.893H16.937L16.937,506.239z M3.598,577.504l3.295-2.207l3.295-0.947l2.511,0.316
	l0.471,1.576l1.883,0.473l1.883-1.891l-0.314-1.578l2.668-0.631l2.825,2.521l-1.099,1.734l-4.237,1.105l-2.668-0.475l-3.609-1.104
	l-4.237,1.418l-1.569,0.316L3.598,577.504z M51.146,573.09l1.569,1.891l2.04-1.576l-1.412-1.262L51.146,573.09z M53.971,576.084
	l1.099-2.207l2.04,0.316l-0.785,1.891H53.971z M76.883,574.194l1.412,1.734l0.942-1.104l-0.785-1.895L76.883,574.194z
	 M85.357,562.053l1.099,5.676l2.825,0.789l4.864-2.838l4.237-2.523l-1.569-2.365l0.471-2.365l-2.04,1.264l-2.825-0.789l1.569-1.105
	l1.883,0.789l3.766-1.734l0.471-1.42l-2.354-0.785l0.785-1.895l-2.667,1.895l-4.551,3.469l-4.708,2.838L85.357,562.053z
	 M126.472,542.661l2.354-1.42l-0.941-1.734l-1.726,0.947L126.472,542.661z"/>
<path class="state" id="FL" fill="#F2D0FF" d="M731.268,450.268l2.027,8l3.62,9.502l5.179,9.145l3.609,6.148l4.708,5.361l3.923,3.625l1.569,2.838
	l-1.1,1.262l-0.784,1.262l2.824,7.252l2.825,2.838l2.511,5.203l3.452,5.676l4.396,8.041l1.255,7.412l0.471,11.666l0.628,1.734
	l-0.313,3.311l-2.354,1.262l0.314,1.895l-0.628,1.893l0.312,2.363l0.471,1.893L767.516,563l-2.98,1.418l-3.767,0.158l-1.413,1.576
	l-2.354,0.943l-1.256-0.473l-1.098-0.945l-0.314-2.838l-0.784-3.311l-3.296-5.047l-3.452-2.207l-3.767-0.314l-0.784,1.262
	l-2.981-4.258l-0.628-3.469l-2.511-3.941l-1.727-1.104l-1.569,2.049l-1.726-0.312l-2.04-4.891l-2.825-3.783l-2.824-5.201
	l-2.511-2.996l-3.453-3.625l2.04-2.365l3.139-5.361l-0.156-1.576l-4.395-0.945l-1.569,0.631l0.314,0.629l2.511,0.947l-1.412,4.414
	l-0.785,0.473l-1.727-3.939l-1.255-4.73l-0.313-2.68l1.412-4.572v-9.303l-2.98-3.625l-1.256-2.996l-5.021-1.262l-1.884-0.633
	l-1.568-2.52l-3.296-1.578l-1.099-3.311l-2.668-0.945l-2.354-3.627l-4.08-1.418l-2.824-1.42h-2.512l-3.923,0.789l-0.157,1.891
	l0.785,0.947l-0.471,1.104l-2.981-0.158l-3.608,3.469l-3.452,1.893h-3.768l-3.139,1.26l-0.313-2.68l-1.568-1.893l-2.825-1.104
	l-1.569-1.418l-7.846-3.785l-7.376-1.734l-4.237,0.631l-5.806,0.475l-5.807,2.049l-3.377,0.6l-0.231-7.854l-2.511-1.891
	l-1.728-1.734l0.314-2.996l9.887-1.262l24.794-2.838l6.591-0.631l5.964-0.156l2.512,3.783l1.412,1.418l7.688,0.158l10.503-0.631
	l20.883-1.262l5.286-0.656l4.442,0.027l0.157,2.838l2.511,0.787l0.313-4.256l-1.568-4.416l1.098-1.576l5.649,0.789L731.268,450.268
	L731.268,450.268z M743.273,580.264l2.354-0.631l1.256-0.236l1.412-2.287l2.275-1.576l1.256,0.473l1.646,0.316l0.394,1.023
	l-3.374,1.184l-4.08,1.418l-2.275,1.184L743.273,580.264z M756.377,575.375l1.177,1.025l2.668-2.051l5.18-4.1l3.608-3.785
	l2.434-6.463l0.94-1.656l0.156-3.311l-0.706,0.473l-0.941,2.762l-1.411,4.49l-3.14,5.125l-4.236,4.102l-3.295,1.891L756.377,575.375
	z"/>
<path class="state" id="SC" fill="#FFD0D0" d="M736.759,419.366l-1.726,0.945l-2.512-1.26L731.895,417l-1.255-3.469l-2.196-2.049l-2.512-0.633
	l-1.568-4.729l-2.668-5.834l-4.08-1.891l-2.04-1.895l-1.255-2.522l-2.04-1.892l-2.197-1.262l-2.197-2.838l-2.98-2.207l-4.395-1.734
	l-0.471-1.42l-2.354-2.838l-0.471-1.418l-3.295-5.045l-3.296,0.156l-3.923-2.365l-1.256-1.261l-0.313-1.733l0.784-1.893l2.197-0.945
	l-0.313-2.051l5.963-2.521l8.788-4.416l7.062-0.787l16.007-0.475l2.196,1.893l1.568,3.154l4.237-0.475l12.24-1.418l2.823,0.788
	l12.24,7.409l9.812,7.922l-5.264,5.324l-2.511,5.99l-0.471,6.148l-1.569,0.788l-1.099,2.681l-2.354,0.631l-2.04,3.469l-2.668,2.682
	l-2.195,3.311l-1.569,0.787l-3.453,3.312l-2.824,0.156l0.941,3.154l-4.864,5.359L736.759,419.366L736.759,419.366z"/>
<path class="state" id="GA" fill="#D7FFD0" d="M667.241,365.76l-4.708,0.787l-8.16,1.104l-8.317,0.867v2.129l0.157,2.051l0.628,3.311l3.295,7.726
	l2.354,9.618l1.412,5.99l1.568,4.73l1.412,6.779l2.04,6.148l2.511,3.311l0.472,3.312l1.884,0.787l0.156,2.051l-1.727,4.729
	l-0.472,3.154l-0.156,1.893l1.569,4.256l0.312,5.203l-0.784,2.365l0.628,0.789l1.412,0.787l0.627,3.311l2.513,3.785l1.412,1.418
	l7.688,0.158l10.503-0.631l20.882-1.262l5.287-0.656l4.442,0.025l0.157,2.84l2.511,0.787l0.312-4.256l-1.567-4.416l1.098-1.576
	l5.649,0.789l4.832,0.309l-0.753-6.143l2.196-9.775l1.412-4.1l-0.471-2.521l3.923-6.779l-0.581-1.578l-1.771,0.945l-2.512-1.26
	L731.895,417l-1.255-3.469l-2.196-2.049l-2.512-0.633l-1.568-4.729l-2.668-5.834l-4.08-1.891l-2.04-1.895l-1.255-2.522l-2.04-1.892
	l-2.197-1.262l-2.197-2.838l-2.98-2.208l-4.395-1.733l-0.471-1.42l-2.354-2.838l-0.471-1.418l-3.295-5.047l-3.296,0.158
	l-3.923-2.365l-1.256-1.262l-0.313-1.732l0.784-1.893l2.197-0.947l-0.157-2.227l-1.726,0.492l-5.649,0.947l-6.748,0.787
	L667.241,365.76L667.241,365.76z"/>
<path class="state" id="AL" fill="#FFD0D0" d="M605.097,471.87l-1.566-14.822l-2.668-18.289l0.155-13.717l0.785-30.271l-0.157-16.239l0.16-6.261
	l7.529-0.36l26.991-2.523l9.873-0.867l-0.145,2.129l0.157,2.051l0.628,3.311l3.295,7.726l2.354,9.618l1.411,5.99l1.569,4.73
	l1.412,6.779l2.04,6.148l2.511,3.311l0.472,3.312l1.884,0.787l0.155,2.051l-1.726,4.729l-0.471,3.154l-0.157,1.893l1.569,4.256
	l0.312,5.203l-0.784,2.365l0.628,0.789l1.412,0.787l0.784,3.469h-6.12l-6.591,0.631l-24.794,2.838l-9.887,1.262l-0.313,2.996
	l1.727,1.734l2.511,1.891l0.563,7.74l-6.371,2.51l-2.668-0.314l2.668-1.893v-0.947l-2.981-5.834l-2.196-0.631l-1.412,4.258
	l-1.256,2.682l-0.628-0.156h-2.666V471.87z"/>
<path class="state" id="NC" fill="#F2D0FF" d="M805.559,307.729l1.66,4.582l3.452,6.307l2.354,2.365l0.628,2.207l-2.354,0.158l0.784,0.631
	l-0.313,4.1l-2.511,1.262l-0.628,2.05l-1.256,2.838l-3.609,1.575l-2.354-0.312l-1.412-0.16l-1.569-1.262l0.313,1.262v0.945h1.884
	l0.784,1.262l-1.883,6.148h4.08l0.627,1.578l2.196-2.208l1.257-0.474l-1.884,3.469l-2.981,4.73h-1.255l-1.1-0.474l-2.668,0.631
	l-5.021,2.364l-6.277,5.203l-3.295,4.572l-1.884,6.307l-0.471,2.363l-4.552,0.475l-5.722,2.166l-9.655-8l-12.241-7.41l-2.823-0.788
	l-12.24,1.418l-4.237,0.474l-1.568-3.152l-2.196-1.893l-16.007,0.473l-7.062,0.789l-8.788,4.414l-5.963,2.522l-1.568,0.315
	l-5.649,0.945l-6.748,0.787l-6.591,0.475l0.312-4.729l1.728-1.421l2.668-0.63l0.627-3.626l4.08-2.681l3.767-1.42l4.08-3.469
	l4.237-2.05l0.628-2.995l3.766-3.785l0.628-0.156c0,0,0,1.104,0.785,1.104c0.784,0,1.883,0.313,1.883,0.313l2.197-3.469l2.039-0.631
	l2.197,0.316l1.569-3.469l2.824-2.523l0.472-2.049v-3.863l4.394,0.709l6.927-1.261l15.357-1.892l16.634-2.523l19.999-3.68
	l18.605-3.73l11.142-2.838L805.559,307.729L805.559,307.729z M809.34,339.901l2.511-2.443l3.062-2.521l1.49-0.63l0.156-1.972
	l-0.628-5.992l-1.412-2.285l-0.628-1.812l0.706-0.236l2.668,5.361l0.394,4.336l-0.157,3.311l-3.295,1.498l-2.747,2.365l-1.098,1.182
	L809.34,339.901z"/>
<path class="state" id="TN" fill="#FFFFD0" d="M674.46,329.338l-50.374,4.889l-15.298,1.732l-4.485,0.502l-3.756-0.027v3.783l-8.16,0.473
	l-6.748,0.631l-10.771,0.053l-0.257,5.69l-2.076,6.12l-0.966,2.941l-1.31,4.272l-0.313,2.522l-3.923,2.207l1.412,3.47l-0.941,4.256
	l-1.491,1.655l7.925-0.078l23.383-1.893l5.18-0.158l7.846-0.473l26.991-2.523l9.873-0.786l8.174-0.946l8.16-1.105l4.708-0.787
	l0.312-4.729l1.728-1.42l2.668-0.631l0.627-3.626l4.08-2.681l3.767-1.42l4.08-3.469l4.237-2.049l0.628-2.996l3.766-3.785
	l0.628-0.156c0,0,0,1.105,0.785,1.105c0.784,0,1.883,0.312,1.883,0.312l2.197-3.469l2.039-0.631l2.197,0.316l1.569-3.469
	l2.824-2.523l0.472-2.049l0.171-3.836l-2.211,0.051l-2.354,1.893l-7.688,0.158l-11.645,1.854L674.46,329.338z"/>
<path class="state" id="RI" fill="#F2D0FF" d="M846.293,192.013l-0.469-4.101l-0.784-4.257l-1.647-5.755l5.57-1.498l1.569,1.104l3.296,4.257
	l2.823,4.337l-2.825,1.498l-1.256-0.157l-1.1,1.734l-2.354,1.892L846.293,192.013z"/>
<path class="state" id="CT" fill="#D7FFD0" d="M846.764,192.013l-0.938-4.101l-0.784-4.257l-1.569-5.834l-5.021,1.104l-21.187,4.651l0.628,3.232
	l1.412,7.095v7.883l-1.099,2.208l1.779,2.057l4.81-3.317l3.452-3.153l1.884-2.049l0.784,0.63l2.668-1.419l5.021-1.104
	L846.764,192.013z"/>
<path class="state" id="MA" fill="#FFD0D0" d="M871.441,186.188l2.107-0.669l0.444-1.672l0.998,0.111l0.999,2.229l-1.222,0.446l-3.771,0.111
	L871.441,186.188L871.441,186.188z M862.343,186.968l2.22-2.563h1.554l1.774,1.449l-2.33,1.003l-2.107,1.004L862.343,186.968z
	 M828.562,165.523l16.947-4.1l2.196-0.63l2.041-3.153l3.627-1.622l2.805,4.304l-2.354,5.045l-0.314,1.419l1.884,2.522l1.099-0.788
	h1.727l2.197,2.522l3.766,5.833l3.452,0.473l2.197-0.946l1.727-1.734l-0.784-2.68l-2.04-1.577l-1.412,0.789l-0.941-1.261
	l0.471-0.473l2.041-0.158l1.727,0.788l1.883,2.365l0.941,2.838l0.313,2.365l-4.08,1.419l-3.767,1.892l-3.768,4.415l-1.883,1.419
	v-0.946l2.354-1.419l0.471-1.734l-0.784-2.995l-2.824,1.419l-0.784,1.419l0.471,2.207l-2.667,1.418l-2.666-4.416l-3.296-4.257
	l-1.569-1.104l-5.57,1.498l-4.942,1.024l-21.187,4.651l-0.94-5.597l0.628-10.327l5.021-0.867L828.562,165.523"/>
<path class="state" id="ME" fill="#F2D0FF" d="M893.999,92.053l1.883,2.049l2.197,3.626v1.892l-2.04,4.573l-1.883,0.63l-3.296,2.996l-4.708,5.36
	c0,0-0.628,0-1.256,0c-0.627,0-0.941-2.05-0.941-2.05l-1.727,0.158l-0.94,1.419l-2.354,1.419l-0.94,1.419l1.569,1.419l-0.472,0.63
	l-0.471,2.68l-1.883-0.157v-1.577l-0.314-1.261l-1.412,0.315l-1.727-3.153l-2.04,1.261l1.256,1.419l0.312,1.104l-0.783,1.261
	l0.312,2.996l0.157,1.577l-1.569,2.522l-2.824,0.473l-0.313,2.838l-5.179,2.996l-1.256,0.473l-1.568-1.419l-2.981,3.469l0.941,3.153
	l-1.413,1.261l-0.156,4.257l-1.531,7.433l-2.39-1.127l-0.472-2.996l-3.766-1.104l-0.314-2.68l-7.062-22.862l-4.626-14.409
	l2.37-0.337l1.471,0.4v-2.522l0.783-5.361l2.512-4.572l1.412-3.941l-1.884-2.365v-5.833l0.785-0.946l0.784-2.681l-0.156-1.419
	l-0.156-4.729l1.727-4.73l2.824-8.671l2.039-4.099h1.256l1.256,0.157v1.104l1.256,2.207l2.667,0.631l0.785-0.789v-0.946l3.923-2.838
	l1.727-1.734l1.412,0.158l5.807,2.365l1.884,0.946l8.788,29.168h5.806l0.785,1.892l0.157,4.73l2.823,2.208h0.784l0.157-0.473
	l-0.471-1.104L893.999,92.053z M873.68,121.455l1.491-1.498l1.334,1.025l0.549,2.365l-1.646,0.867L873.68,121.455L873.68,121.455z
	 M880.192,115.7l1.727,1.812c0,0,1.255,0.079,1.255-0.236s0.235-1.971,0.235-1.971l0.862-0.789l-0.783-1.734l-1.962,0.71
	L880.192,115.7z"/>
<path class="state" id="NH" fill="#FFFFD0" d="M853.376,155.98l0.293-1.492l1.058-3.21l-2.468-0.891l-0.472-2.996l-3.766-1.104l-0.314-2.68
	l-7.062-22.862l-4.466-14.184l-0.871-0.005l-0.628,1.577l-0.628-0.473l-0.94-0.946l-1.412,1.892l-0.93,5.35l0.304,5.527l1.883,2.68
	v3.942l-3.609,3.941l-2.511,1.104v1.104l1.099,1.734v8.355l-0.783,8.987l-0.157,4.73l0.94,1.261l-0.156,4.415l-0.472,1.734
	l1.413,1.971l16.791-4.021l2.196-0.63l2.041-3.153L853.376,155.98L853.376,155.98z"/>
<path class="state" id="VT" fill="#D7FFD0" d="M817.106,167.889l-0.784-5.519l-2.981-10.721l-0.628-0.315l-2.824-1.261l0.784-2.838l-0.784-2.05
	l-2.512-4.415l0.942-3.784l-0.785-5.045l-2.354-6.307l-0.781-4.801l26.359-7.023l0.314,5.675l1.883,2.68v3.942l-3.608,3.942
	l-2.512,1.104v1.104l1.099,1.734v8.356l-0.783,8.987l-0.157,4.73l0.94,1.261l-0.156,4.415l-0.472,1.734l1.413,1.971l-6.748,1.34
	L817.106,167.889z"/>
<path class="state" id="NY" fill="#F2D0FF" d="M801.729,202.26l-1.1-0.946l-2.51-0.158l-2.197-1.892l-2.354-5.203l-2.916-0.908l-2.264-2.088
	l-18.046,3.941L728.6,203.52l-8.631,1.419l-0.717-6.751l2.599-1.761l1.256-1.104l0.94-1.576l1.728-1.104l1.883-1.734l0.471-1.577
	l2.041-2.68l1.098-0.946l-0.155-0.946l-1.256-2.996l-1.728-0.158l-1.883-5.991l2.825-1.734l4.235-1.419l3.925-1.261l3.139-0.473
	l6.12-0.158l1.883,1.261l1.569,0.158l2.04-1.262l2.511-1.104l5.021-0.473l2.04-1.734l1.728-3.153l1.568-1.893h2.04l1.883-1.104
	l0.157-2.207l-1.413-2.05l-0.312-1.419l1.099-2.05v-1.419h-1.727l-1.727-0.788l-0.785-1.104l-0.156-2.522l5.649-5.361l0.627-0.788
	l1.412-2.838l2.825-4.415l2.668-3.626l2.04-2.365l2.344-1.78l2.991-1.215l5.336-1.261l3.14,0.158l4.394-1.419l7.344-2.02
	l0.505,4.856l2.354,6.307l0.784,5.045l-0.941,3.784l2.511,4.415l0.785,2.05l-0.785,2.838l2.825,1.261l0.628,0.315l2.981,10.721
	l0.471,5.045l-0.471,10.563l0.784,5.361l0.784,3.469l1.412,7.095v7.883l-1.099,2.208l1.785,1.943l-0.219,1.526l-1.883,1.734
	l0.313,1.261l1.256-0.315l1.412-1.261l2.197-2.523l1.098-0.63l1.568,0.63l2.197,0.158l7.689-3.784l2.825-2.68l1.255-1.419
	l4.08,1.577l-3.297,3.469l-3.766,2.838l-6.905,5.203l-2.511,0.946l-5.648,1.892l-3.924,1.104l-1.471-0.52l-0.566-3.266l0.471-2.68
	l-0.157-2.049l-2.511-1.104l-4.395-0.946l-3.767-1.104L801.729,202.26z"/>
<path class="state" id="NJ" fill="#FFFFD0" d="M801.729,202.26l-2.04,2.365v2.996l-1.884,2.996l-0.156,1.577l1.256,1.262l-0.157,2.365
	l-2.197,1.104l0.785,2.68l0.157,1.104l2.667,0.315l0.941,2.523l3.452,2.365l2.354,1.577v0.788l-3.14,2.996l-1.567,2.208l-1.413,2.68
	l-2.196,1.261l-1.178,0.709l-0.235,1.183l-0.591,2.542l1.062,2.188l3.138,2.838l4.708,2.208l3.923,0.63l0.157,1.419l-0.784,0.946
	l0.313,2.68h0.784l2.039-2.365l0.785-4.73l2.668-3.942l2.981-6.307l1.099-5.36l-0.628-1.104l-0.157-9.145l-1.568-3.311l-1.1,0.789
	l-2.667,0.315l-0.471-0.473l1.099-0.946l2.039-1.892l0.062-1.067l-0.373-3.349l0.471-2.68l-0.157-2.049l-2.511-1.104l-4.394-0.946
	l-3.768-1.104L801.729,202.26L801.729,202.26z"/>
<path class="state" id="PA" fill="#D7FFD0" d="M797.491,238.05l1.099-0.631l2.196-1.261l1.413-2.68l1.567-2.208l3.14-2.996v-0.788l-2.354-1.577
	l-3.452-2.365l-0.941-2.522l-2.667-0.315l-0.157-1.104l-0.785-2.68l2.197-1.104l0.157-2.365l-1.256-1.262l0.156-1.576l1.884-2.996
	v-2.996l2.274-2.365l-1.334-0.946l-2.51-0.157l-2.197-1.894l-2.354-5.203l-2.916-0.908l-2.264-2.088l-18.046,3.941l-41.743,8.514
	l-8.631,1.419l-0.479-6.909l-5.327,5.491l-1.256,0.473l-4.079,2.935l2.826,18.665l1.638,10.485l3.467,18.786l4.495-0.733
	l11.594-1.465l36.816-7.476l14.439-2.753l8.059-1.582l1.251-1.229l2.04-1.577L797.491,238.05L797.491,238.05z"/>
<path class="state" id="DE" fill="#FFD0D0" d="M796.391,241.362l0.786-2.051l0.235-1.261h-1.961l-2.04,1.577l-1.413,1.419l1.413,4.099l2.196,5.519
	l2.039,9.46l1.569,6.149l4.865-0.158l5.962-1.182l-2.198-7.174l-0.94,0.473l-3.452-2.365l-1.728-4.572l-1.883-3.469l-2.197-0.946
	l-2.04-3.468L796.391,241.362z"/>
<path class="state" id="MD" fill="#F2D0FF" d="M810.043,264.854l-5.961,1.26l-4.865,0.158l-1.568-6.149l-2.04-9.46l-2.196-5.519l-1.251-4.29
	l-8.058,1.583l-14.44,2.753l-36.354,7.364l1.099,4.888l0.941,5.519l0.312-0.315l2.04-2.365l2.197-2.996l2.354-0.157l1.412-1.419
	l1.728-2.523l1.256,0.63l2.823-0.315l2.512-2.05l1.947-1.417l1.791-0.473l1.598,1.102l2.823,1.419l1.885,1.734l1.177,1.498
	l4.001,1.655v2.838l5.336,1.261l1.883,1.261l0.941-1.892l2.196,1.577l-1.411,3.153l-0.314,2.68l-1.726,2.523v2.05l0.628,1.734
	l4.915,1.322l4.185-0.06l2.982,0.946l2.039,0.314l0.941-2.049l-1.412-2.05v-1.734l-2.354-2.049l-2.04-5.361l1.256-5.203
	l-0.157-2.049l-1.256-1.262c0,0,1.413-1.576,1.413-2.207s0.471-2.05,0.471-2.05l1.883-1.261l1.884-1.577l0.472,0.946l-1.413,1.577
	l-1.255,3.626l0.312,1.104l1.728,0.315l0.471,5.361l-2.04,0.946l0.313,3.469l0.471-0.158l1.099-1.892l1.569,1.734l-1.569,1.261
	l-0.312,3.311l2.511,3.312l3.766,0.473l1.569-0.789l3.139,5.045l1.728,0.473v3.469l-2.197,4.729l-0.471,6.78l1.412,3.311
	l1.413,0.158l1.883-4.099l0.784-3.469l0.156-6.938l2.981-4.73l2.04-6.78v-5.515H810.043z M794.118,274.391l1.099,2.444l0.156,1.734
	l1.099,1.813c0,0,0.863-0.867,0.863-1.182c0-0.315-0.706-2.996-0.706-2.996l-0.706-2.286L794.118,274.391z"/>
<path class="state" id="WV" fill="#FFFFD0" d="M733.326,252.621l1.08,4.822l0.94,5.519l0.313-0.315l2.04-2.365l2.196-2.996l2.354-0.157
	l1.412-1.419l1.727-2.523l1.256,0.63l2.824-0.315l2.511-2.05l1.948-1.417l1.791-0.473l1.597,1.102l2.824,1.419l1.883,1.734
	l1.334,1.262l-1.02,4.888l-5.493-2.996l-4.394-1.734l-0.157,5.203l-0.471,2.05l-1.569,2.681l-0.627,1.576l-2.981,2.365l-0.472,2.207
	l-3.295,0.315l-0.312,2.996l-1.1,5.36h-2.511l-1.256-0.788l-1.569-2.681l-1.726,0.158l-0.314,4.257l-2.04,6.464l-4.864,10.563
	l0.784,1.262l-0.156,2.681l-2.04,1.894l-1.412-0.316l-3.14,2.365l-2.511-0.945l-1.727,4.572c0,0-3.608,0.787-4.236,0.945
	s-2.354-1.263-2.354-1.263l-2.354,2.208l-2.511,0.631l-2.824-0.787l-1.256-1.263l-2.128-2.948l-3.051-1.938l-2.512-2.681
	l-2.823-3.627l-0.628-2.208l-2.512-1.419l-0.785-1.577l-0.234-5.124l2.118-0.079l1.884-0.789l0.157-2.68l1.567-1.419l0.157-4.888
	l0.94-3.784l1.257-0.63l1.255,1.104l0.471,1.734l1.727-0.946l0.472-1.577l-1.1-1.734v-2.365l0.942-1.261l2.196-3.311l1.256-1.419
	l2.04,0.473l2.195-1.577l2.982-3.311l2.196-3.784l0.313-5.518l0.472-4.888v-4.572l-1.1-2.996l0.941-1.419l1.246-1.262l3.389,19.337
	l4.495-0.733L733.326,252.621L733.326,252.621z"/>
<path class="state" id="VA" fill="#FFD0D0" d="M699.568,306.477l1.883,3.469l1.255,1.262l2.825,0.787l2.511-0.629l2.354-2.209
	c0,0,1.727,1.42,2.354,1.262c0.627-0.156,4.236-0.945,4.236-0.945l1.727-4.571l2.511,0.944l3.14-2.364l1.412,0.315l2.039-1.893
	l0.157-2.68l-0.784-1.262l4.864-10.564l2.04-6.464l0.313-4.257l1.727-0.158l1.569,2.681l1.256,0.788h2.51l1.099-5.36l0.314-2.996
	l3.295-0.315l0.471-2.207l2.982-2.365l0.627-1.576l1.569-2.681l0.471-2.05l0.157-5.203l4.394,1.734l5.493,2.996l0.784-4.967
	l4.08,1.971v2.838l5.336,1.261l1.883,1.261l0.941-1.892l2.196,1.577l-1.412,3.153l-0.313,2.68l-1.727,2.522v2.05l0.627,1.734
	l4.916,1.322l1.831,1.517l5.021,0.315l2.511,2.208l3.139,0.63l1.257,1.262l-0.473,4.414l0.942,0.946l0.156,2.207l1.256,2.05
	l-0.157,1.734l-3.139-1.104v0.946l1.884,1.577v1.104l1.412,1.104l1.255,1.575l0.157,2.207l-2.196,1.42l0.312,0.474l2.512-0.474
	l3.139-0.631l1.099-0.158l3.956,6.855l-4.739,1.659l-11.143,2.839l-18.604,3.729l-19.999,3.681l-16.636,2.522l-15.355,1.893
	l-6.927,1.262l-4.381-0.603l-2.055-0.028l-2.354,1.893l-7.689,0.158L684,328.512l-9.706,0.908l2.676-1.344l5.492-3.312l3.767-2.05
	v-2.051l1.727-1.733l4.395-5.203l4.08-3.468L699.568,306.477L699.568,306.477z"/>
<path class="state" id="KY" fill="#D7FFD0" d="M699.457,307.202l-3.027,3.059l-4.08,3.47l-4.395,5.203l-1.727,1.733v2.051l-3.767,2.05
	l-5.492,3.312l-2.535,1.371l-50.35,4.777l-15.298,1.734l-4.485,0.5l-3.756-0.026v3.782l-8.16,0.474l-6.748,0.632l-10.125,0.2
	l0.977-1.213l2.116-1.72l1.998-1.113l0.222-3.122l0.888-1.782l-1.56-2.479l0.777-1.858l2.197-1.733l2.039-0.631l2.668,1.262
	l3.453,1.262l1.098-0.316l0.157-2.207l-1.255-2.365l0.313-2.207l1.883-1.418l2.511-0.631l1.569-0.631l-0.784-1.734l-0.628-1.893
	l1.099-0.787l1.021-3.232l2.902-1.655l5.649-0.944l3.452-0.475l1.413,1.893l1.726,0.789l1.728-3.154l2.823-1.418l1.885,1.576
	l0.783,1.104l2.04-0.473l-0.157-3.312l2.825-1.577l1.1-0.787l1.099,1.575h4.551l0.784-2.049l-0.312-2.208l2.823-3.468l4.552-3.784
	l0.471-4.415l2.668-0.315l3.767-1.734l2.668-1.892l-0.313-1.892l-1.412-1.419l0.549-2.129l4.002-0.236l2.354-0.788l2.825,1.576
	l1.568,4.257l5.649,0.314l1.726,1.734l2.04,0.158l2.354-1.419l2.98,0.473l1.256,1.419l2.667-2.522l1.728-1.262h1.568l0.628,2.681
	l1.727,0.946l3.453,2.05l0.156,5.36l0.784,1.577l2.512,1.419l0.628,2.208l2.823,3.625l2.512,2.682L699.457,307.202z"/>
<path class="state" id="OH" fill="#FFD0D0" d="M708.827,206.711l-6.906,4.063l-3.767,2.208l-3.295,3.626l-3.925,3.784l-3.139,0.788l-2.824,0.473
	l-5.336,2.523l-2.039,0.158l-3.296-2.996l-5.021,0.63l-2.511-1.419l-2.312-1.317l-4.749,0.686l-9.887,1.577l-7.532,1.183
	l1.255,14.27l1.728,13.402l2.511,22.861l0.549,5.597l4.002-0.236l2.354-0.789l2.824,1.577l1.569,4.257l5.649,0.315l1.726,1.734
	l2.04,0.158l2.354-1.419l2.981,0.473l1.255,1.419l2.668-2.522l1.728-1.262h1.568l0.627,2.681l1.728,0.946l3.374,2.286l2.118-0.079
	l1.884-0.789l0.155-2.68l1.569-1.419l0.157-4.888l0.94-3.784l1.257-0.63l1.255,1.104l0.471,1.734l1.727-0.946l0.472-1.577
	l-1.1-1.733v-2.365l0.941-1.261l2.197-3.312l1.256-1.419l2.04,0.473l2.195-1.577l2.981-3.311l2.197-3.784l0.313-5.518l0.472-4.888
	v-4.572l-1.1-2.996l0.941-1.419l1.334-0.71l-1.805-10.485L708.827,206.711L708.827,206.711z"/>
<path class="state" id="MI" fill="#D7FFD0" d="M562.406,96.664l1.774-2.007l2.108-0.78l5.216-3.791l2.219-0.557l0.444,0.446l-4.994,5.017
	l-3.218,1.895l-1.997,0.893L562.406,96.664L562.406,96.664z M646.058,127.998l0.627,2.444l3.14,0.158l1.256-1.183
	c0,0-0.079-1.419-0.394-1.576c-0.312-0.158-1.568-1.813-1.568-1.813L647,126.264l-1.569,0.158l-0.313,1.104L646.058,127.998z
	 M675.243,189.49l-3.14-8.041l-2.195-8.829l-2.354-3.153l-2.511-1.734l-1.569,1.104l-3.767,1.734l-1.883,4.888l-2.668,3.626
	l-1.099,0.631l-1.413-0.631c0,0-2.511-1.419-2.354-2.05s0.471-4.888,0.471-4.888l3.296-1.261l0.784-3.311l0.628-2.522l2.354-1.577
	l-0.313-9.775l-1.568-2.208l-1.257-0.788l-0.783-2.05l0.783-0.788l1.569,0.315l0.157-1.577l-2.354-2.207l-1.256-2.522h-2.511
	l-4.394-1.419l-5.337-3.312h-2.668l-0.628,0.631l-0.94-0.473l-2.981-2.208l-2.823,1.734l-2.825,2.208l0.312,3.468l0.942,0.315
	l2.04,0.473l0.471,0.788l-2.511,0.789l-2.511,0.315l-1.413,1.734l-0.313,2.05l0.313,1.577l0.313,5.361l-3.452,2.049l-0.628-0.158
	V153.7l1.255-2.365l0.628-2.365l-0.783-0.788l-1.885,0.788l-0.94,4.1l-2.668,1.104l-1.727,1.892l-0.156,0.946l0.628,0.788
	l-0.628,2.523l-2.197,0.473v1.104l0.785,2.365l-1.1,5.992l-1.568,3.941l0.628,4.572l0.471,1.104l-0.785,2.365l-0.312,0.788
	l-0.313,2.681l3.452,5.833l2.824,6.307l1.413,4.73l-0.785,4.572l-0.941,5.833l-2.354,5.045l-0.314,2.68l-2.991,3.034l-0.723,0.75
	l4.5-0.158l21.342-2.207l5.964-0.631l0.313,1.183l7.532-1.183l9.887-1.577l5.062-0.45l-1.298-1.126l0.156-1.419l2.04-3.626
	l1.941-1.695l-0.216-4.927l1.551-1.557l1.059-0.335l0.216-3.469l1.491-2.956l1.021,0.591l0.157,0.631l0.783,0.158l1.884-0.946
	L675.243,189.49z M547.592,125.54l1.796-1.008l2.668-0.789l3.452-2.207v-0.946l0.628-0.631l5.808-0.946l2.354-1.892l4.237-2.049
	l0.157-1.261l1.883-2.838l1.727-0.788l1.255-1.734l2.197-2.208l4.236-2.365l4.552-0.473l1.099,1.104l-0.313,0.946l-3.609,0.946
	l-1.412,2.996l-2.196,0.789l-0.472,2.365l-2.354,3.153l-0.314,2.523l0.785,0.473l0.941-1.104l3.451-2.838l1.257,1.261h2.195
	l3.14,0.946l1.412,1.104l1.412,2.996l2.668,2.68l3.767-0.158l1.412-0.946l1.568,1.261l1.569,0.473l1.256-0.789h1.1l1.568-0.946
	l3.923-3.469l3.295-1.104l6.436-0.315l4.394-1.892l2.511-1.261l1.413,0.158v5.518l0.472,0.315l2.823,0.789l1.884-0.473l5.964-1.577
	l1.099-1.104l1.412,0.473v6.779l3.139,2.996l1.255,0.631l1.257,0.946l-1.257,0.315l-0.783-0.315l-3.609-0.473l-2.04,0.63
	l-2.197-0.158l-3.139,1.419h-1.726l-5.649-1.261l-5.021,0.158l-1.885,2.521l-6.748,0.631l-2.354,0.788l-1.1,2.996l-1.255,1.104
	l-0.471-0.158l-1.413-1.577l-4.394,2.365h-0.628l-1.1-1.577l-0.784,0.158l-1.883,4.257l-0.941,3.941l-3.64,7.935l-1.582-1.119
	l-1.332-1.338l-1.554-10.034l-3.551-1.115l-1.331-2.23l-12.206-2.675l-2.441-1.115l-7.988-2.23l-7.989-1.115L547.592,125.54
	L547.592,125.54z"/>
<path class="state" id="WY" fill="#FFD0D0" d="M342.631,157.012l-11.175-0.944l-31.148-3.214l-15.757-2.007l-27.519-4.013l-19.308-2.899
	l-1.378,10.9l-3.727,23.661l-5.104,29.655l-1.486,10.256l-1.621,11.595l6.333,0.905l16.393,2.229l8.573,1.147l19.967,2.406
	l36.173,4.014l23.747,2.007l4.217-43.257l1.555-24.75L342.631,157.012z"/>
<path class="state" id="MT" fill="#FFFFD0" d="M344.824,136.354l0.784-11.345l2.191-24.331l1.332-14.716l1.224-13.879l-31.021-3.208l-28.404-3.468
	l-28.404-3.942l-31.385-5.203l-17.89-3.311l-31.766-6.761l-4.348,20.82l3.329,7.358l-1.332,4.459l1.775,4.459l3.107,1.338
	l3.551,10.034l3.551,3.567l0.444,1.115l3.329,1.115l0.444,2.007l-6.88,17.169v2.453l2.441,3.122h0.888l4.661-2.898l0.666-1.115
	l1.553,0.669l-0.222,5.128l2.663,12.263l2.885,2.453l0.888,0.669l1.775,2.229l-0.443,3.345l0.666,3.345l1.11,0.892l2.219-2.229
	h2.663l3.107,1.561l2.441-0.892h3.995l3.551,1.561l2.663-0.446l0.444-2.899l2.885-0.668l1.332,1.337l0.443,3.122l2.506,2.427
	l1.489-11.123l19.308,2.899l27.519,4.013l15.757,2.007l31.149,3.214l11.135,1.174l1.646-15.516L344.824,136.354L344.824,136.354z"/>
<path class="state" id="ID" fill="#D7FFD0" d="M134.357,189.816l4.609-18.009l4.217-17.28l1.332-4.125l2.441-5.797l-1.221-2.229l-2.441,0.111
	l-0.776-1.003l0.444-1.115l0.333-3.01l4.328-5.351l1.775-0.446l1.11-1.115l0.555-3.122l0.888-0.669l3.773-5.687l3.772-4.237
	l0.222-3.679l-3.329-2.563l-1.276-4.292l0.388-9.42l3.551-16.054l4.328-20.29l3.662-13.156l0.739-3.709l13.706,2.622l-4.348,20.82
	l3.329,7.358l-1.332,4.459l1.775,4.459l3.107,1.338l3.551,10.034l3.551,3.567l0.444,1.115l3.329,1.115l0.444,2.007l-6.88,17.169
	v2.452l2.441,3.122h0.888l4.661-2.899l0.666-1.115l1.553,0.669l-0.222,5.128l2.663,12.263l2.885,2.453l0.888,0.669l1.776,2.229
	l-0.444,3.345l0.666,3.345l1.11,0.892l2.219-2.229h2.663l3.107,1.561l2.441-0.892h3.995l3.551,1.561l2.663-0.446l0.444-2.899
	l2.885-0.669l1.332,1.338l0.444,3.122l2.552,2.007l-3.662,23.858l-4.993,29.544l-4.661-0.78l-8.101-1.338l-9.987-1.784
	l-11.651-2.007l-12.317-2.286l-7.767-1.951l-8.988-1.784l-9.432-1.895L134.357,189.816L134.357,189.816z"/>
<path class="state" id="WA" fill="#FFD0D0" d="M88.652,22.837l4.237,1.419l9.416,2.68l8.317,1.892l19.458,5.518l22.284,5.52l15.651,3.624
	l-0.975,3.788l-3.662,13.156l-4.328,20.29l-3.55,16.054l-0.186,9.46l-13.574-3.329l-14.647-3.456l-14.98,0.112l-0.444-1.338
	l-5.326,2.007l-4.328-0.558l-2.33-1.561l-1.221,0.669l-4.55-0.223l-1.664-1.338l-5.104-2.006l-0.777,0.111l-4.217-1.449
	l-1.886,1.784l-5.992-0.334l-5.77-4.013l0.666-0.781l0.222-7.581l-2.219-3.791l-3.995-0.558l-0.666-2.453l-2.285-0.455l-1.863-1.461
	l-1.726,0.946l-2.197-2.838l0.313-2.838l2.668-0.315l1.569-3.942l-2.511-1.104l0.157-3.626l4.237-0.631l-2.668-2.68l-1.413-6.938
	l0.628-2.838v-7.726l-1.726-3.153l2.197-9.145l2.04,0.473l2.354,2.838l2.668,2.522l3.138,1.892l4.394,2.049l2.981,0.631l2.825,1.419
	l3.295,0.946l2.197-0.158v-2.365l1.255-1.104l2.04-1.261l0.314,1.104l0.313,1.734L85.509,38.6l-0.314,2.05l1.727,1.419l1.098,2.365
	l0.628,1.892l1.412-0.158l0.157-1.262l-0.942-1.261l-0.471-3.153l0.785-1.734l-0.627-1.419v-2.208l1.726-3.469l-1.099-2.522
	l-2.354-4.73l0.314-0.789L88.652,22.837z M79.472,28.668l1.961-0.158l0.471,1.34l1.491-1.577h2.275l0.785,1.498l-1.491,1.656
	l0.628,0.788l-0.707,1.971l-1.333,0.395c0,0-0.863,0.079-0.863-0.236c0-0.314,1.412-2.522,1.412-2.522l-1.647-0.552l-0.314,1.419
	l-0.706,0.63l-1.491-2.207L79.472,28.668L79.472,28.668z"/>
<path class="state" id="TX" fill="#D7FFD0" d="M344.416,341.768l22.026,1.061l30.183,1.113l-1.332,23.189l-0.443,17.393l0.223,1.561l4.217,3.567
	l1.997,1.114l0.666-0.223l0.666-2.006l1.331,1.782h1.997v-1.338l2.664,1.338l-0.444,3.791l3.995,0.224l2.44,1.115l3.994,0.668
	l2.441,1.785l2.219-2.009l3.329,0.671l2.441,3.344h0.888v2.229l2.22,0.668l2.22-2.229l1.774,0.67h2.441l0.888,2.453l4.66,1.783
	l1.332-0.668l1.774-4.016h1.109l1.109,2.006l3.995,0.67l3.551,1.34l2.885,0.891l1.775-0.891l0.666-2.453h4.217l1.997,0.891
	l2.663-2.006h1.109l0.665,1.561h3.995l1.554-2.006l1.775,0.445l1.997,2.453l3.106,1.783l3.106,0.893l2.663,1.227l2.22,1.895
	l2.885-1.338l2.663,1.115l0.652,10.828l0.014,9.463l0.666,9.141l0.665,3.791l2.441,4.014l0.888,4.904l4.217,5.352l0.223,3.123
	l0.666,0.668l-0.666,8.25l-2.886,4.906l1.555,2.006l-0.666,2.453l-0.666,7.135l-1.331,3.121l0.273,3.496l-6.276,1.703l-9.573,4.414
	l-0.941,1.893l-2.511,1.893l-2.04,1.42l-1.255,0.789l-5.493,5.201l-2.667,2.051l-5.179,3.152l-5.493,2.363l-6.12,3.312l-1.726,1.42
	l-5.649,3.469l-3.296,0.631l-3.766,5.359l-3.924,0.314l-0.941,1.895l2.197,1.891l-1.412,5.361l-1.256,4.414l-1.1,3.785l-0.783,4.414
	l0.783,2.363l1.728,6.779l0.94,5.99l1.728,2.682l-0.942,1.418l-2.98,1.895l-5.492-3.783l-5.335-1.105l-1.256,0.475l-3.14-0.631
	l-4.08-2.996l-5.021-1.105l-7.376-3.311l-2.04-3.785l-1.255-6.307l-3.14-1.891l-0.628-2.207l0.628-0.631l0.313-3.312l-1.255-0.629
	l-0.628-0.947l1.256-4.256l-1.569-2.209l-3.139-1.26l-3.296-4.258l-3.452-6.465l-4.08-2.521l0.157-1.893l-5.18-11.982l-0.784-4.1
	l-1.727-1.893l-0.157-1.418l-5.806-5.203l-2.512-2.996v-1.105l-2.511-2.049l-6.592-1.104l-7.219-0.631l-2.98-2.207l-4.395,1.734
	l-3.453,1.418l-2.195,3.154l-0.941,3.625l-4.237,5.992l-2.354,2.363l-2.513-0.945l-1.726-1.105l-1.883-0.631l-3.768-2.207v-0.631
	l-1.727-1.891l-5.021-2.051l-7.22-7.568l-2.197-4.572v-7.883l-3.139-6.307l-0.471-2.68l-1.569-0.945l-1.098-2.051l-4.865-2.049
	l-1.255-1.578l-6.905-7.725l-1.255-3.154l-4.551-2.207l-1.412-4.256l-2.511-2.838l-1.883-0.477l-0.63-4.561l7.768,0.668
	l28.185,2.676l28.186,1.562l2.22-23.189l3.772-54.182l1.554-18.283l1.331,0.026 M441.66,569.936l-0.55-6.938l-2.668-7.016
	l-0.55-6.859l1.491-8.041l3.217-6.699l3.374-5.283l3.061-3.469l0.628,0.238l-4.63,6.463l-4.236,6.387l-1.962,6.463l-0.313,5.047
	l0.863,5.99l2.512,7.016l0.471,5.047l0.156,1.418L441.66,569.936z"/>
<path class="state" id="CA" fill="#D7FFD0" d="M131.179,394.456l4.015-0.789l1.442-2.119l0.555-2.676l-3.551-0.557l-0.444-0.781l0.444-1.672
	l0.111-5.686l1.998-0.67l2.774-2.676l0.555-4.793l1.442-3.568l1.886-1.895l3.329-1.674l1.553-1.337l0.111-2.229l-0.999-0.558
	l-0.776-1.004l-1.221-5.687l-2.663-4.795l0.562-3.187l-2.448-3.167l-14.092-22.188l-18.864-28.318l-22.082-33L72.797,241.31
	l1.588-6.404l6.769-25.307l7.878-30.659l-13.094-3.567l-13.094-3.345l-12.206-4.014l-7.324-2.007l-11.096-2.898l-6.844-2.352
	l-1.534,4.608l-0.157,7.252l-5.021,11.509l-2.982,2.523l-0.313,1.104l-1.727,0.789l-1.412,4.099l-0.785,3.153l2.667,4.099l1.569,4.1
	l1.099,3.469l-0.314,6.307l-1.726,2.995l-0.628,5.676l-0.941,3.626l1.726,3.784l2.668,4.415l2.197,4.73l1.255,3.942l-0.313,3.153
	l-0.314,0.473v2.05l5.492,6.149l-0.471,2.365l-0.627,2.207l-0.628,1.892l0.157,8.041l2.04,3.626l1.883,2.523l2.668,0.473l0.941,2.68
	l-1.099,3.469l-2.04,1.577h-1.098l-0.785,3.784l0.471,2.838l3.139,4.257L32,299.697l1.413,4.572l1.255,2.995l3.295,5.677
	l1.413,2.522l0.471,2.838l1.569,0.945v2.365l-0.785,1.893l-1.727,6.938l-0.471,1.893l2.354,2.68l4.08,0.475l4.394,1.734l3.766,2.049
	h2.825l2.825,2.996l2.511,4.729l1.099,2.209l3.766,2.049l4.708,0.789l1.412,2.049l0.628,3.154l-1.413,0.629l0.314,0.947l3.139,0.787
	l2.667,0.157l2.825,4.571l3.766,4.101l0.785,2.207l2.511,4.101l0.313,3.153v9.146l0.471,1.733l9.729,1.418l19.145,2.681
	L131.179,394.456L131.179,394.456z M45.184,345.34l1.255,1.498l-0.157,1.262l-3.138-0.078l-0.549-1.184l-0.628-1.418L45.184,345.34
	L45.184,345.34z M47.066,345.34l1.177-0.631l3.452,2.051l2.981,1.182l-0.863,0.631l-4.394-0.236l-1.569-1.576L47.066,345.34
	L47.066,345.34z M67.153,364.655l1.726,2.287l0.785,0.945l1.491,0.552l0.549-1.419l-0.941-1.734l-2.589-1.971l-1.02,0.158
	L67.153,364.655L67.153,364.655z M65.741,373.09l1.726,3.074l1.177,1.893l-1.413,0.236l-1.255-1.184c0,0-0.706-1.419-0.706-1.812
	c0-0.395,0-2.129,0-2.129L65.741,373.09z"/>
<path class="state" id="AZ" fill="#FFFFD0" d="M131.532,394.557l-2.55,2.105l-0.314,1.418l0.471,0.947l18.36,10.404l11.77,7.41l14.28,8.355
	l16.32,9.775l11.927,2.365l25.95,3.42l1.989-12.98l3.643-26.256l6.761-51.889l4.133-30.043l-24.967-3.744l-26.409-4.459
	l-32.45-6.162l-2.836,17.645l-0.444,0.445l-1.665,2.564l-2.441-0.111l-1.221-2.676l-2.663-0.334l-0.888-1.115H147.4l-0.888,0.559
	l-1.887,1.002l-0.111,6.801l-0.222,1.674l-0.555,12.263l-1.442,2.119l-0.555,3.231l2.663,4.795l1.221,5.687l0.776,1.004l0.999,0.558
	l-0.111,2.229l-1.553,1.339l-3.329,1.672l-1.886,1.895l-1.442,3.568l-0.555,4.793l-2.774,2.676l-1.998,0.67l-0.111,5.686
	l-0.444,1.672l0.444,0.781l3.551,0.557l-0.555,2.676l-1.442,2.119L131.532,394.557L131.532,394.557z"/>
<path class="state" id="NV" fill="#FFD0D0" d="M134.357,189.816l20.366,4.4l9.432,1.895l8.988,1.784l7.823,2.062l-1.165,5.407l-3.44,17.058
	l-3.662,19.956l-1.887,8.696l-2.108,13.267l-3.218,16.166l-3.107,14.828l-1.911,10.242l-2.861,17.295l-0.444,0.445l-1.665,2.564
	l-2.441-0.111l-1.221-2.676l-2.663-0.334l-0.888-1.115H147.4l-0.888,0.559l-1.887,1.002l-0.111,6.801l-0.222,1.674l-0.555,12.263
	l-1.439,2.144l-2.445-3.146l-14.092-22.187l-18.864-28.318l-22.082-33l-12.019-18.123l1.588-6.404l6.769-25.307l7.656-30.573
	l32.624,7.94l13.316,2.898"/>
<path class="state" id="UT" fill="#F2D0FF" d="M244.16,319.862l-24.855-4.014l-26.41-4.459l-32.524-6.028l2.009-10.026l3.107-14.828l3.218-16.166
	l2.108-13.267l1.887-8.696l3.662-19.956l3.44-17.058l1.082-5.436l12.345,2.202l11.651,2.007l9.987,1.784l8.101,1.338l4.661,0.78
	l-1.597,10.368l-1.621,11.595l6.333,0.905l16.394,2.229l8.905,1.147l-3.002,21.582l-3.107,21.852l-3.643,27.293l-1.461,10.834
	L244.16,319.862L244.16,319.862z"/>
<path class="state" id="CO" fill="#D7FFD0" d="M362.448,331.456l3.994-64.215l1.554-21.853l-32.401-2.675l-23.747-2.007l-36.173-4.014
	l-20.084-2.453l-2.552,21.628l-3.107,21.852l-3.643,27.293l-1.461,10.834l-0.555,3.791l33.4,4.014l35.857,4.316l31.804,2.148
	l6.463,0.67l11.097,0.557"/>
<path class="state" id="NM" fill="#FFD0D0" d="M273.354,437.182l-0.787-4.719l7.767,0.668l28.185,2.676l28.186,1.561l2.22-23.189l3.772-54.182
	l1.554-18.283l1.331,0.027l-0.014-11.428l-32.039-2.344l-35.857-4.316l-33.456-4.015l-4.077,29.997l-6.761,51.889l-3.643,26.256
	l-1.99,12.98l15.008,1.939l1.255-9.773l16.164,2.521L273.354,437.182L273.354,437.182z"/>
<path class="state" id="OR" fill="#F2D0FF" d="M134.639,189.422l4.328-17.615l4.217-17.28l1.332-4.125l2.441-5.797l-1.221-2.229l-2.441,0.111
	l-0.776-1.003l0.444-1.115l0.333-3.01l4.328-5.351l1.775-0.446l1.11-1.115l0.555-3.122l0.888-0.669l3.773-5.687l3.772-4.237
	l0.222-3.679l-3.329-2.563l-1.018-4.085l-13.629-3.496l-14.647-3.456l-14.98,0.111l-0.444-1.337l-5.326,2.006l-4.328-0.557
	l-2.33-1.561l-1.221,0.669l-4.55-0.223l-1.664-1.338l-5.104-2.006l-0.777,0.111l-4.217-1.449l-1.886,1.784l-5.992-0.334l-5.77-4.014
	l0.666-0.78l0.222-7.581l-2.219-3.791l-3.995-0.558l-0.666-2.453l-2.285-0.455l-5.629,2.008l-2.197,6.307l-3.139,9.775l-3.139,6.307
	l-4.865,13.717l-6.277,13.244l-7.846,12.298l-1.883,2.838l-0.785,8.356l-1.255,5.833l2.162,4.379l6.844,2.352l11.096,2.898
	l7.324,2.007l12.206,4.014l13.094,3.345l13.094,3.791 M134.357,189.816l-45.546-10.788l32.623,7.941l13.316,2.898"/>
<path class="state" id="ND" fill="#D7FFD0" d="M456.102,141.929l-0.666-8.25l-1.774-7.135l-1.775-13.156l-0.442-9.588l-1.775-3.344l-1.554-4.906
	V85.517l0.666-3.791l-1.898-5.363l-28.524-0.55l-18.047-0.631l-25.735-1.261l-24.216-1.837l-1.225,13.879l-1.332,14.716
	l-2.191,24.331l-0.628,11.844l54.528,3.515L456.102,141.929z"/>
<path class="state" id="SD" fill="#F2D0FF" d="M457.55,215.575l-0.926-1.993l-1.632-2.754l1.774-4.237l1.331-5.574l-2.663-2.007l-0.442-2.676
	l0.888-2.452h1.775l0.442-6.689l-0.222-29.655l-0.443-2.899l-3.995-3.344l-1.108-1.784v-1.561l1.997-1.561l1.331-1.338l0.333-3.122
	l-56.48-1.561l-54.528-3.791l-0.744,5.149l-1.565,15.476l-1.306,17.503l-1.554,25.084l15.091,1.004l19.528,1.115l17.312,1.115
	l23.081,1.115l10.431-0.446l1.997,2.229l4.66,2.899l1.11,0.892l4.216-1.338l3.772-0.446l2.663-0.223l1.775,1.338l4.882,1.561
	l2.886,1.561l0.443,1.561l0.888,2.007h1.775L457.55,215.575L457.55,215.575z"/>
<path class="state" id="NE" fill="#FFFFD0" d="M468.974,257.206l1.331,2.453l-0.222,2.23l2.441,3.79l3.105,4.014h-5.992l-42.832-0.446
	l-39.28-1.338l-21.193-0.78l1.664-21.74l-32.401-2.676l4.218-42.922l15.091,1.003l19.528,1.115l17.312,1.115l23.081,1.115
	l10.431-0.446l1.997,2.23l4.66,2.898l1.109,0.892l4.217-1.338l3.772-0.446l2.663-0.223l1.775,1.338l4.882,1.561l2.886,1.561
	l0.443,1.561l0.888,2.007h1.775l1.554-0.112l1.109,5.24l2.662,7.357l0.889,4.683l2.22,3.567l0.666,5.128l1.553,4.014l0.224,6.466
	l1.881,5.365"/>
<path class="state" id="IA" fill="#D7FFD0" d="M548.812,213.057l0.056,1.784l2.22,0.669l0.888,1.115l0.443,1.784l3.773,3.344l0.665,2.23
	l-0.665,3.345l-1.775,3.567l-0.666,2.453l-2.22,1.784l-1.775,0.669l-5.104,1.337l-0.665,1.784l-0.666,2.007l0.666,1.338l1.774,1.561
	l-0.223,4.013l-1.775,1.561l-0.665,1.561v2.676l-1.774,0.446l-1.555,1.115l-0.222,1.338l0.222,2.007l-1.664,1.728l-3.219-3.289
	l-1.108-2.229l-7.546,0.668l-9.544,0.446l-24.634,0.892l-13.094,0.223l-9.099,0.223l-1.059,0.118l-1.604-5.247l-0.224-6.466
	l-1.553-4.014l-0.666-5.128l-2.22-3.568l-0.889-4.682l-2.662-7.357l-1.109-5.24l-1.332-2.119l-1.553-2.675l1.774-4.237l1.331-5.574
	l-2.663-2.007l-0.442-2.676l0.888-2.452h1.664h11.207l48.159-0.669l17.531-0.669l3.994-0.112l0.666,3.233l2.221,1.561l0.222,1.338
	l-1.998,3.345l0.223,3.122l2.44,3.791l2.441,1.115l2.885,0.446L548.812,213.057L548.812,213.057z"/>
<path class="state" id="MS" fill="#F2D0FF" d="M604.97,472.063l-1.128,1.225h-5.021l-1.413-0.787l-2.04-0.316l-6.591,1.895l-1.727-0.789
	l-2.511,4.1l-1.07,0.76l-1.091-2.428l-1.11-3.791l-3.328-3.121l1.109-7.357l-0.666-0.893l-1.774,0.223l-7.989,0.67l-23.524,0.668
	l-0.443-1.561l0.666-7.805l3.328-6.02l5.104-8.918l-0.888-2.01h1.108l0.666-3.119l-2.22-1.783l0.223-1.785l-1.998-4.459
	l-0.276-5.213l1.332-2.592l-0.39-4.236l-1.331-2.898l1.331-1.338l-1.331-2.006l0.443-1.785l0.888-6.02l2.886-2.677l-0.666-2.007
	l3.552-5.129l2.663-0.893v-2.453l-0.666-1.336l2.663-5.129l2.663-1.115l0.104-3.328l8.421-0.074l23.384-1.893l5.327-0.224
	l0.008,6.214l0.156,16.24l-0.784,30.271l-0.156,13.717l2.668,18.289L604.97,472.063L604.97,472.063z"/>
<path class="state" id="IN" fill="#F2D0FF" d="M598.351,311.049l-0.156-3.783l0.471-4.416l2.197-2.838l1.726-3.783l2.511-4.1l-0.471-5.676
	l-1.726-2.68l-0.314-3.153l0.785-5.361l-0.471-6.78l-1.256-15.609l-1.256-14.978l-0.941-11.431l2.98,0.868l1.412,0.946l1.1-0.315
	l2.039-1.892l2.746-1.577l4.944-0.158l21.342-2.207l5.963-0.631l0.157,1.104l1.412,14.348l1.727,13.402l2.512,22.862l0.471,5.518
	l-0.471,2.208l1.412,1.419l0.312,1.892l-2.667,1.892l-3.767,1.734l-2.668,0.315l-0.472,4.415l-4.551,3.784l-2.824,3.469l0.313,2.207
	l-0.784,2.05h-4.551l-1.1-1.576l-1.099,0.787l-2.825,1.578l0.157,3.311l-2.04,0.473l-0.784-1.104l-1.884-1.576l-2.824,1.418
	l-1.727,3.154l-1.727-0.789l-1.413-1.893l-3.452,0.475l-5.648,0.945L598.351,311.049z"/>
<path class="state" id="IL" fill="#FFD0D0" d="M598.193,310.891v-3.625l0.471-4.416l2.197-2.838l1.726-3.783l2.511-4.1l-0.471-5.676l-1.726-2.68
	l-0.314-3.153l0.785-5.361l-0.471-6.78l-1.257-15.609l-1.255-14.978l-0.784-11.352l-1.257-0.788l-0.784-2.522l-1.256-3.626
	l-1.568-1.734l-1.413-2.522l-0.228-5.354l-9.611,1.28l-26.409,1.672l-8.435-0.418l0.223,2.313l2.22,0.669l0.888,1.115l0.443,1.784
	l3.773,3.345l0.664,2.229l-0.664,3.345l-1.775,3.567l-0.666,2.453l-2.22,1.784l-1.775,0.669l-5.104,1.338l-0.665,1.783l-0.666,2.007
	l0.666,1.338l1.774,1.561l-0.223,4.013l-1.775,1.562l-0.665,1.561v2.676l-1.774,0.446l-1.555,1.115l-0.222,1.338l0.222,2.007
	l-1.665,1.282l-0.998,2.731l0.443,3.567l2.22,7.135l7.103,7.358l5.326,3.567l-0.223,4.237l0.889,1.338l6.214,0.446l2.663,1.338
	l-0.666,3.567l-2.22,5.797l-0.666,3.121l2.221,3.791l6.214,5.129l4.438,0.668l1.997,4.905l1.997,3.121l-0.888,2.897l1.554,4.015
	l1.775,2.008l2.879-0.329l0.557-2l2.197-1.734l2.04-0.631l2.667,1.262l3.453,1.262l1.098-0.316l0.157-2.207l-1.255-2.365
	l0.312-2.207l1.884-1.418l2.511-0.631l1.568-0.631l-0.783-1.734l-0.628-1.893l1.099-0.787L598.193,310.891L598.193,310.891z"/>
<path class="state" id="MN" fill="#FFD0D0" d="M455.88,141.929l-0.444-8.25l-1.774-7.135l-1.775-13.156l-0.442-9.588l-1.775-3.344l-1.554-4.906
	V85.517l0.666-3.791l-1.769-5.317l29.25,0.034l0.313-8.041l0.628-0.157l2.196,0.473l1.884,0.789l0.784,5.361l1.411,5.991
	l1.569,1.576h4.708l0.314,1.419l6.12,0.315v2.05h4.706l0.314-1.261l1.099-1.104l2.196-0.631l1.256,0.946h2.824l3.768,2.523
	l5.179,2.365l2.354,0.473l0.472-0.946l1.413-0.473l0.471,2.838l2.511,1.261l0.471-0.473l1.256,0.157v2.05l2.511,0.946h2.98
	l1.57-0.789l3.138-3.153l2.512-0.473l0.784,1.734l0.472,1.262h0.94l0.941-0.789l8.631-0.315l1.727,2.996h0.628l0.692-1.058
	l4.312-0.361l-0.596,2.223l-3.822,1.792l-8.976,3.96l-4.636,1.958l-2.981,2.522l-2.354,3.469l-2.197,3.784l-1.727,0.788
	l-4.395,4.888l-1.255,0.158l-3.296,2.996l0.668,0.53l-2.734,2.64l-0.222,2.676v8.25l-1.109,1.561l-5.104,3.791l-2.22,5.797
	l0.443,0.223l2.441,2.007l0.665,3.122l-1.775,3.122v3.791l0.444,6.466l2.885,2.898h3.329l1.775,3.122l3.328,0.446l3.772,5.575
	l6.88,4.013l1.997,2.676l0.889,7.358h-3.995l-17.531,0.669l-48.158,0.669h-11.208l0.556-6.688l-0.223-29.655l-0.443-2.899
	l-3.994-3.344l-1.109-1.784v-1.561l1.997-1.561l1.332-1.337L455.88,141.929L455.88,141.929z"/>
<path class="state" id="WI" fill="#FFFFD0" d="M593.031,210.159l0.14-4.114l-1.569-4.415l-0.628-5.991l-1.099-2.365l0.941-2.996l0.784-2.838
	l1.412-2.523l-0.628-3.311l-0.628-3.469l0.472-1.733l1.884-2.365l0.156-2.68l-0.784-1.262l0.628-2.522l0.471-3.153l2.668-5.518
	l2.824-6.622l0.157-2.208l-0.314-0.946l-0.784,0.473l-4.08,6.149l-2.668,3.941l-1.883,1.734l-0.784,2.208l-1.413,0.788l-1.099,1.892
	l-1.412-0.315l-0.156-1.734l1.255-2.365l2.04-4.572l1.728-1.577l1.067-2.235l-1.582-0.883l-1.332-1.338l-1.554-10.034l-3.551-1.115
	l-1.331-2.23l-12.206-2.675l-2.44-1.115l-7.989-2.23l-7.989-1.115l-4.048-5.271l-0.514,1.23l-1.1-0.158l-0.628-1.104l-2.668-0.788
	l-1.098,0.157l-1.728,0.946l-0.94-0.631l0.628-1.892l1.883-2.996l1.099-1.104l-1.883-1.419l-2.041,0.788l-2.824,1.892l-7.219,3.153
	l-2.824,0.631l-2.824-0.473l-0.953-0.856l-2.056,2.765l-0.222,2.675v8.25l-1.109,1.561l-5.104,3.791l-2.22,5.797l0.443,0.223
	l2.441,2.007l0.665,3.122l-1.775,3.122v3.791l0.444,6.466l2.885,2.898h3.329l1.775,3.122l3.328,0.446l3.772,5.574l6.88,4.014
	l1.997,2.676l0.889,7.247l0.665,3.233l2.221,1.561l0.222,1.338l-1.997,3.345l0.222,3.122l2.441,3.791l2.439,1.115l2.887,0.446
	l1.191,2.452h8.905l25.854-1.561L593.031,210.159L593.031,210.159z"/>
<path class="state" id="MO" fill="#F2D0FF" d="M537.993,260.104l-3.107-3.122l-1.108-2.23l-7.547,0.669l-9.543,0.446l-24.634,0.892l-13.094,0.223
	l-7.656,0.112l-2.22,0.111l1.221,2.453l-0.222,2.229l2.44,3.79l2.996,4.014l2.996,2.676l2.22,0.223l1.332,0.892v2.899l-1.775,1.561
	l-0.444,2.229l1.997,3.345l2.441,2.899l2.44,1.784l1.332,11.373l-0.666,34.448l0.223,4.569l0.443,6.689l22.637-0.445l22.637-0.668
	l20.196-0.893l10.651-0.445l1.775,2.898l-0.444,2.229l-3.105,2.676l-0.666,2.898l5.991,0.447l4.883-0.67l1.998-6.243l-0.14-5.491
	l2.803-1.421l1.331-1.562l1.997-1.113l0.223-3.123l0.888-1.783l-1.332-2.369l-2.885,0.362l-1.775-2.007l-1.554-4.014l0.888-2.898
	l-1.997-3.121l-1.997-4.906l-4.438-0.668l-6.214-5.129l-2.22-3.791l0.666-3.121l2.219-5.797l0.666-3.567l-2.663-1.338l-6.214-0.446
	l-0.889-1.337l0.223-4.237l-5.326-3.567l-7.103-7.358l-2.22-7.135l-0.442-3.567L537.993,260.104L537.993,260.104z"/>
<path class="state" id="AR" fill="#FFD0D0" d="M572.457,353.061l-4.727,0.916l-5.991-0.447l0.666-2.898l3.105-2.676l0.444-2.229l-1.775-2.898
	l-10.652,0.446l-20.195,0.892l-22.637,0.67l-22.638,0.445l1.555,6.688v8.027l1.332,10.703l0.222,36.902l2.22,1.895l2.885-1.338
	l2.663,1.115l0.639,10.953l21.555-0.027l18.643-0.893l10.485,0.139l1.443-2.592l-0.39-4.236l-1.332-2.898l1.332-1.338l-1.332-2.006
	l0.444-1.785l0.888-6.02l2.886-2.676l-0.666-2.006l3.552-5.129l2.663-0.893v-2.453l-0.666-1.338l2.663-5.127l2.663-1.115
	l-0.288-3.564l2.38-1.1l0.94-4.572l-1.412-3.469l3.924-2.209l0.312-2.521l1.311-4.273L572.457,353.061z"/>
<path class="state" id="OK" fill="#FFFFD0" d="M362.171,331.233l-10.376-0.445l-6.241-0.475l0.25,0.195l-0.526,11.26l21.166,1.061l30.183,1.113
	l-1.332,23.189l-0.443,17.393l0.223,1.561l4.217,3.567l1.997,1.114l0.666-0.223l0.666-2.006l1.331,1.782h1.998v-1.338l2.663,1.338
	l-0.444,3.791l3.995,0.224l2.44,1.115l3.994,0.668l2.441,1.785l2.219-2.009l3.329,0.671l2.441,3.344h0.888v2.229l2.22,0.668
	l2.219-2.229l1.775,0.67h2.441l0.888,2.453l4.66,1.783l1.332-0.668l1.774-4.016h1.109l1.109,2.006l3.994,0.67l3.552,1.34
	l2.885,0.891l1.775-0.891l0.665-2.453h4.218l1.997,0.891l2.663-2.006h1.109l0.665,1.561h3.995l1.554-2.006l1.775,0.445l1.997,2.453
	l3.106,1.783l3.106,0.893l2.663,1.561l-0.222-37.236l-1.332-10.703v-8.027l-1.554-6.688l-0.443-6.689l-0.223-4.348l-12.872,0.78
	l-45.051-0.446l-43.721-2.006L362.171,331.233L362.171,331.233z"/>
<path class="state" id="KS" fill="#FFD0D0" d="M487.395,334.354l-12.873,0.67l-45.051-0.445l-43.721-2.008l-23.44-1.227l4.022-64.216l21.193,0.781
	l39.28,1.338l42.832,0.446h5.882l2.996,2.676l2.22,0.223l1.332,0.892v2.899l-1.775,1.562l-0.444,2.229l1.998,3.345l2.44,2.899
	l2.44,1.784l1.332,11.372L487.395,334.354L487.395,334.354z"/>
<path class="state" id="LA" fill="#FFFFD0" d="M583.598,477.94l-1.219-2.221l-1.109-3.791l-3.329-3.121l1.109-7.357l-0.666-0.893l-1.774,0.223
	l-7.989,0.67l-23.524,0.668l-0.443-1.561l0.666-7.805l3.329-6.02l5.104-8.918l-0.888-2.01h1.108l0.666-3.119l-2.22-1.783
	l0.223-1.785l-1.997-4.459l-0.333-5.354H539.77l-18.644,0.895l-21.555,0.027l0.028,9.338l0.666,9.141l0.664,3.791l2.441,4.014
	l0.888,4.904l4.218,5.352l0.222,3.123l0.666,0.668l-0.666,8.25l-2.885,4.906l1.554,2.006l-0.666,2.453l-0.666,7.135l-1.332,3.121
	l0.119,3.527l4.55-1.482l7.846-0.314l10.044,3.469l6.276,1.105l3.609-1.42l3.139,1.104l3.139,0.947l0.784-2.051l-3.138-1.105
	l-2.511,0.473l-2.669-1.574c0,0,0.156-1.264,0.784-1.418c0.628-0.158,2.981-0.947,2.981-0.947l1.727,1.42l1.728-0.947l3.139,0.631
	l1.412,2.365l0.312,2.207l4.395,0.316l1.727,1.732l-0.784,1.576l-1.256,0.789l1.569,1.576l8.16,3.469l3.452-1.262l0.94-2.365
	l2.511-0.631l1.728-1.418l1.256,0.945l0.784,2.838l-2.196,0.789l0.627,0.631l3.296-1.262l2.196-3.311l0.785-0.475l-2.04-0.314
	l0.784-1.576l-0.156-1.42l2.04-0.473l1.099-1.262l0.627,0.789c0,0-0.155,2.994,0.628,2.994c0.784,0,4.08,0.633,4.08,0.633
	l3.923,1.891l0.942,1.42h2.824l1.099,0.945l2.197-2.996v-1.418h-1.256l-3.295-2.684l-5.649-0.785l-3.139-2.207l1.099-2.684
	l2.196,0.316l0.157-0.631l-1.728-0.945v-0.475h3.14l1.727-2.994l-1.256-1.893l-0.313-2.68l-1.411,0.156l-1.885,2.051l-0.627,2.52
	l-2.981-0.631l-0.941-1.732l1.728-1.893l1.961-1.732L583.598,477.94L583.598,477.94z"/>
<path class="state" id="path3106" fill="#FFD0D0" d="M801.239,295.645l-1.271-2.822l0.377-7.331l2.387-4.163l-0.126-4.036l5.648-2.145
	l-0.628,2.145l-3.013,3.91l-0.307,7.663l-0.715,3.185l-1.741,3.674L801.239,295.645z"/>
</svg>