<?xml version="1.0" encoding="utf-8"?>
<!-- Generator: Adobe Illustrator 16.0.0, SVG Export Plug-In . SVG Version: 6.00 Build 0)  -->
<!DOCTYPE svg PUBLIC "-//W3C//DTD SVG 1.1//EN" "http://www.w3.org/Graphics/SVG/1.1/DTD/svg11.dtd">
<svg version="1.1"
	 id="svg2275" xmlns:sodipodi="http://sodipodi.sourceforge.net/DTD/sodipodi-0.dtd" xmlns:svg="http://www.w3.org/2000/svg" xmlns:rdf="http://www.w3.org/1999/02/22-rdf-syntax-ns#" xmlns:cc="http://creativecommons.org/ns#" xmlns:dc="http://purl.org/dc/elements/1.1/" xmlns:inkscape="http://www.inkscape.org/namespaces/inkscape" sodipodi:docname="Map_of_USA_with_state_names.svg" inkscape:version="0.48.0 r9654"
	 xmlns="http://www.w3.org/2000/svg" xmlns:xlink="http://www.w3.org/1999/xlink" x="0px" y="0px" width="958.689px"
	 height="592.79px" viewBox="0 0 958.689 592.79" enable-background="new 0 0 958.689 592.79" xml:space="preserve">
<path id="CT_1_" class="state" fill="#70CDE3" stroke="#FFFFFF" stroke-width="2" stroke-miterlimit="10" d="M876.737,192.013l-0.938-4.101
	l-0.784-4.257l-1.569-5.834l-5.021,1.104l-21.188,4.651l0.628,3.232l1.412,7.095v7.883l-1.099,2.208l1.779,2.057l4.81-3.317
	l3.452-3.153l1.884-2.049l0.784,0.63l2.668-1.419l5.021-1.104L876.737,192.013z"/>
<path id="NJ_1_" class="state" fill="#70CDE3" stroke="#FFFFFF" stroke-width="2" stroke-miterlimit="10" d="M831.702,202.26l-2.039,2.365v2.996
	l-1.885,2.996l-0.154,1.577l1.256,1.262l-0.157,2.365l-2.197,1.104l0.785,2.68l0.157,1.104l2.667,0.315l0.939,2.523l3.452,2.365
	l2.354,1.577v0.788l-3.141,2.996l-1.566,2.208l-1.412,2.68l-2.196,1.261l-1.179,0.709l-0.234,1.183l-0.592,2.542l1.062,2.188
	l3.138,2.838l4.708,2.208l3.924,0.63l0.156,1.419l-0.783,0.946l0.312,2.68h0.784l2.039-2.365l0.785-4.73l2.668-3.942l2.98-6.307
	l1.1-5.36l-0.629-1.104l-0.156-9.145l-1.567-3.311l-1.101,0.789l-2.667,0.315l-0.472-0.473l1.1-0.946l2.039-1.892l0.062-1.067
	l-0.373-3.349l0.471-2.68l-0.157-2.049l-2.511-1.104l-4.395-0.946l-3.769-1.104L831.702,202.26L831.702,202.26z"/>
<path id="NV_1_" class="state" fill="#70CDE3" stroke="#FFFFFF" stroke-width="2" stroke-miterlimit="10" d="M164.329,189.816l20.367,4.4
	l9.433,1.895l8.987,1.784l7.822,2.062l-1.165,5.407l-3.439,17.058l-3.661,19.956l-1.889,8.696l-2.106,13.267l-3.219,16.166
	l-3.106,14.828l-1.911,10.242l-2.86,17.295l-0.443,0.445l-1.665,2.564l-2.44-0.111l-1.222-2.676l-2.663-0.334l-0.888-1.115h-0.886
	l-0.887,0.559l-1.889,1.002l-0.109,6.801l-0.224,1.676l-0.555,12.263l-1.439,2.146l-2.444-3.146l-14.092-22.188l-18.863-28.317
	l-22.082-33l-12.021-18.123l1.588-6.404l6.771-25.307l7.656-30.573l32.623,7.938l13.315,2.898"/>
<path id="AK_1_" class="state" fill="#999999" stroke="#FFFFFF" stroke-width="2" stroke-miterlimit="10" d="M181.24,459.096l-0.312,83.248
	l1.569,0.947l2.98,0.156l1.412-1.105h2.511l0.157,2.838l6.748,6.623l0.471,2.521l3.296-1.895l0.627-0.154l0.313-2.996l1.413-1.576
	l1.098-0.158l1.883-1.418l2.982,2.049l0.627,2.838l1.883,1.105l1.099,2.365l3.768,1.729l3.295,5.834l2.667,3.783l2.197,2.682
	l1.411,3.625l4.864,1.734l5.022,2.051l0.939,4.256l0.473,2.996l-0.941,3.312l-1.726,2.207l-1.569-0.787l-1.413-2.996l-2.667-1.42
	l-1.727-1.105l-0.784,0.789l1.412,2.686l0.155,3.627l-1.098,0.473l-1.883-1.893l-2.04-1.266l0.472,1.576l1.254,1.734l-0.783,0.787
	c0,0-0.785-0.314-1.256-0.945s-2.041-3.311-2.041-3.311l-0.939-2.207c0,0-0.313,1.262-0.94,0.945
	c-0.629-0.314-1.256-1.418-1.256-1.418l1.728-1.893l-1.413-1.42v-4.893h-0.785l-0.785,3.312l-1.098,0.473l-0.942-3.625l-0.627-3.627
	l-0.785-0.473l0.314,5.518v1.105l-1.413-1.262l-3.453-5.832l-2.04-0.477l-0.627-3.625l-1.568-2.838l-1.568-1.105V561.1l2.04-1.262
	l-0.472-0.314l-2.512,0.631l-3.295-2.365l-2.511-2.838l-4.708-2.521l-3.924-2.52l1.256-3.152v-1.578l-1.728,1.578l-2.823,1.105
	l-3.609-1.105l-5.492-2.363h-5.336l-0.627,0.473l-6.277-3.785l-2.038-0.311l-2.668-5.68l-3.453,0.314l-3.451,1.42l0.471,4.414
	l1.101-2.838l0.939,0.314l-1.413,4.256l3.14-2.68l0.629,1.576l-3.769,4.258l-1.255-0.314l-0.472-1.895l-1.254-0.787l-1.257,1.105
	l-2.666-1.734l-2.981,2.049l-1.728,2.051l-3.295,2.049l-4.551-0.158l-0.471-2.049l3.608-0.631v-1.262l-2.196-0.631l0.94-2.363
	l2.196-3.785v-1.734l0.157-0.787l4.235-2.209l0.942,1.262h2.667l-1.255-2.52l-3.608-0.316l-4.865,2.686l-2.354,3.311l-1.726,2.521
	l-1.099,2.207l-4.082,1.42l-2.979,2.52l-0.314,1.576l2.197,0.945l0.785,2.051l-2.668,3.152l-6.277,4.1l-7.532,4.1l-2.039,1.105
	l-5.181,1.104l-5.179,2.207l1.729,1.266l-1.414,1.418l-0.472,1.104l-2.668-0.947l-3.139,0.158l-0.784,2.207h-0.941l0.313-2.365
	l-3.452,1.266l-2.825,0.941l-3.295-1.26l-2.823,1.895h-3.141l-2.04,1.262l-1.567,0.789l-2.041-0.316l-2.512-1.104l-2.195,0.631
	l-0.941,0.945l-1.569-1.105v-1.891l2.981-1.264l6.121,0.633l4.235-1.578l2.04-2.051l2.825-0.631l1.728-0.789l2.668,0.158
	l1.567,1.264l0.941-0.314l2.196-2.682l2.981-0.945l3.295-0.631l1.255-0.314l0.629,0.477h0.784l1.255-3.627l3.924-1.422l1.884-3.627
	l2.196-4.414l1.568-1.42l0.314-2.52l-1.569,1.262l-3.295,0.631l-0.628-2.363l-1.256-0.314l-0.94,0.945l-0.157,2.838l-1.412-0.158
	l-1.411-5.676l-1.257,1.262l-1.099-0.473l-0.312-1.895l-3.925,0.158l-2.041,1.105l-2.511-0.314l1.413-1.42l0.471-2.521l-0.628-1.893
	l1.413-0.945l1.255-0.158l-0.628-1.732v-4.258l-0.941-0.945l-0.784,1.418H81.12l-1.411-1.26l-0.627-3.785l-2.041-3.469v-0.945
	l2.041-0.789l0.155-2.049l1.101-1.104l-0.785-0.475l-1.256,0.475l-1.099-2.684l0.94-4.887l4.394-3.152l2.513-1.578l1.883-3.625
	l2.667-1.262l2.511,1.105l0.312,2.361l2.354-0.311l3.14-2.365l1.568,0.631l0.941,0.631h1.567l2.197-1.262l0.786-4.268
	c0,0,0.312-2.84,0.942-3.312c0.627-0.475,0.939-0.947,0.939-0.947l-1.099-1.891l-2.512,0.787l-3.14,0.789l-1.883-0.473l-3.453-1.734
	l-4.865-0.158l-3.451-3.627l0.472-3.783l0.627-2.363l-2.04-1.734l-1.885-3.627l0.473-0.787l6.591-0.473h2.04l0.94,0.943h0.629
	l-0.157-1.576l3.767-0.631l2.51,0.314l1.412,1.104l-1.412,2.053l-0.471,1.418l2.668,1.576l4.864,1.732l1.728-0.945l-2.196-4.256
	l-0.941-3.152l0.941-0.789l-3.295-1.893l-0.472-1.104l0.472-1.578l-0.785-3.783l-2.825-4.572l-2.354-4.1l2.825-1.896h3.14
	l1.726,0.637l4.081-0.156l3.609-3.469l1.099-2.996l3.609-2.365l1.568,0.945l2.666-0.631l3.609-2.055l1.1-0.152l0.94,0.783
	l4.394-0.152l2.668-2.996h1.1l3.453,2.365l1.883,2.051l-0.472,1.104l0.627,1.104l1.569-1.576l3.767,0.314l0.312,3.627l1.884,1.418
	l6.904,0.631l6.12,4.1l1.412-0.945l5.021,2.521l2.039-0.631l1.883-0.787l4.709,1.891l4.236,2.84v-0.002h0.007V459.096z
	 M69.508,487.319l2.04,5.203l-0.157,0.945l-2.824-0.314l-1.727-3.941l-1.728-1.42h-2.354l-0.157-2.52l1.726-2.365l1.101,2.365
	l1.412,1.418L69.508,487.319z M66.995,519.956l3.609,0.789l3.609,0.945l0.785,0.947l-1.569,3.625l-2.981-0.156l-3.295-3.469
	L66.995,519.956z M46.911,506.239l1.1,2.523l1.099,1.576l-1.099,0.789l-2.04-2.996v-1.893H46.911L46.911,506.239z M33.572,577.504
	l3.296-2.207l3.295-0.947l2.511,0.316l0.471,1.576l1.884,0.473l1.884-1.891l-0.314-1.578l2.668-0.631l2.825,2.52l-1.1,1.734
	l-4.237,1.104l-2.668-0.475l-3.608-1.104l-4.237,1.418l-1.567,0.314L33.572,577.504z M81.12,573.09l1.568,1.891l2.04-1.576
	l-1.412-1.262L81.12,573.09z M83.945,576.084l1.099-2.207l2.041,0.316l-0.785,1.891H83.945z M106.856,574.194l1.412,1.734
	l0.942-1.104l-0.785-1.896L106.856,574.194z M115.329,562.053l1.101,5.676l2.825,0.789l4.863-2.838l4.236-2.523l-1.568-2.365
	l0.472-2.365l-2.04,1.268l-2.825-0.789l1.567-1.105l1.885,0.789l3.767-1.734l0.471-1.42l-2.354-0.785l0.785-1.895l-2.667,1.895
	l-4.551,3.469l-4.709,2.838L115.329,562.053z M156.445,542.661l2.354-1.42l-0.941-1.734l-1.726,0.947L156.445,542.661z"/>
<path id="KY_1_" class="state" fill="#999999" stroke="#FFFFFF" stroke-width="2" stroke-miterlimit="10" d="M729.431,307.202l-3.027,3.059
	l-4.08,3.472l-4.395,5.203l-1.729,1.731v2.051l-3.767,2.052l-5.491,3.312l-2.535,1.371l-50.351,4.776l-15.298,1.733l-4.484,0.5
	l-3.757-0.025v3.781l-8.159,0.475l-6.748,0.633l-10.125,0.199l0.978-1.213l2.116-1.721l1.998-1.112l0.222-3.122l0.888-1.781
	l-1.56-2.48l0.776-1.855l2.196-1.732l2.039-0.631l2.668,1.262l3.453,1.262l1.098-0.316l0.157-2.207l-1.255-2.365l0.312-2.207
	l1.885-1.418l2.511-0.631l1.569-0.631l-0.785-1.734l-0.627-1.893l1.099-0.787l1.021-3.23l2.901-1.654l5.649-0.943l3.451-0.477
	l1.414,1.895l1.726,0.789l1.728-3.154l2.823-1.418l1.886,1.576l0.782,1.104l2.04-0.473l-0.156-3.312l2.824-1.576l1.102-0.787
	l1.099,1.574h4.551l0.784-2.049l-0.312-2.207l2.822-3.469l4.553-3.784l0.471-4.415l2.668-0.315l3.768-1.734l2.669-1.892
	l-0.313-1.892l-1.412-1.419l0.55-2.129l4.002-0.236l2.354-0.788l2.825,1.576l1.566,4.257l5.649,0.314l1.726,1.734l2.041,0.158
	l2.354-1.419l2.979,0.473l1.257,1.419l2.667-2.521l1.729-1.262h1.568l0.628,2.681l1.728,0.946l3.453,2.05l0.155,5.359l0.783,1.577
	l2.513,1.419l0.628,2.208l2.823,3.625l2.512,2.682L729.431,307.202z"/>
<path id="MI_1_" class="state" fill="#999999" stroke="#FFFFFF" stroke-width="2" stroke-miterlimit="10" d="M592.38,96.664l1.772-2.007
	l2.108-0.78l5.216-3.791l2.219-0.557l0.444,0.446l-4.994,5.017l-3.218,1.895l-1.997,0.895L592.38,96.664L592.38,96.664z
	 M676.032,127.998l0.627,2.444l3.141,0.158l1.256-1.183c0,0-0.079-1.419-0.395-1.576c-0.312-0.158-1.567-1.813-1.567-1.813
	l-2.119,0.236l-1.569,0.158l-0.312,1.104L676.032,127.998z M705.217,189.49l-3.142-8.041l-2.193-8.829l-2.354-3.153l-2.512-1.734
	l-1.568,1.104l-3.768,1.734l-1.883,4.888l-2.668,3.626l-1.1,0.631l-1.414-0.631c0,0-2.51-1.419-2.354-2.05
	c0.157-0.631,0.471-4.888,0.471-4.888l3.297-1.261l0.783-3.311l0.629-2.522l2.354-1.577l-0.312-9.775l-1.567-2.208l-1.259-0.788
	l-0.781-2.05l0.781-0.788l1.569,0.315l0.157-1.577l-2.354-2.207l-1.256-2.522h-2.512l-4.395-1.419l-5.338-3.312h-2.668l-0.627,0.631
	l-0.939-0.473l-2.98-2.208l-2.824,1.734l-2.823,2.208l0.312,3.468l0.942,0.315l2.04,0.473l0.471,0.788l-2.511,0.789l-2.512,0.315
	l-1.413,1.734l-0.312,2.05l0.312,1.577l0.312,5.361l-3.451,2.049l-0.629-0.158V153.7l1.256-2.365l0.627-2.365l-0.782-0.788
	l-1.886,0.788l-0.938,4.1l-2.668,1.104l-1.728,1.892l-0.156,0.946l0.628,0.788l-0.628,2.523l-2.196,0.473v1.104l0.784,2.365
	l-1.1,5.992l-1.568,3.941l0.629,4.572l0.471,1.104l-0.785,2.365l-0.312,0.788l-0.312,2.681l3.451,5.833l2.824,6.307l1.413,4.73
	l-0.785,4.572l-0.94,5.833l-2.354,5.045l-0.313,2.68l-2.991,3.034l-0.724,0.75l4.5-0.158l21.342-2.207l5.965-0.631l0.312,1.183
	l7.532-1.183l9.887-1.577l5.062-0.45l-1.298-1.126l0.156-1.419l2.039-3.626l1.94-1.695l-0.216-4.927l1.552-1.557l1.06-0.335
	l0.215-3.469l1.491-2.956l1.021,0.591l0.157,0.631l0.782,0.158l1.884-0.946L705.217,189.49z M577.565,125.54l1.796-1.008
	l2.668-0.789l3.452-2.207v-0.946l0.628-0.631l5.81-0.946l2.354-1.892l4.237-2.049l0.157-1.261l1.883-2.838l1.727-0.788l1.256-1.734
	l2.197-2.208l4.235-2.365l4.552-0.473l1.1,1.104l-0.312,0.946l-3.609,0.946l-1.412,2.996l-2.194,0.789l-0.474,2.365l-2.354,3.153
	l-0.314,2.523l0.785,0.473l0.941-1.104l3.451-2.838l1.257,1.261h2.194l3.141,0.946l1.412,1.104l1.412,2.996l2.668,2.68l3.767-0.158
	l1.412-0.946l1.568,1.261l1.567,0.473l1.256-0.789h1.102l1.566-0.946l3.924-3.469l3.295-1.104l6.437-0.315l4.395-1.892l2.512-1.261
	l1.413,0.158v5.518l0.472,0.315l2.823,0.789l1.884-0.473l5.964-1.577l1.1-1.104l1.412,0.473v6.779l3.139,2.996l1.256,0.631
	l1.257,0.946l-1.257,0.315l-0.783-0.315l-3.608-0.473l-2.04,0.63l-2.196-0.158l-3.14,1.419h-1.727l-5.648-1.261l-5.021,0.158
	l-1.886,2.521l-6.747,0.631l-2.354,0.788l-1.101,2.996l-1.255,1.104l-0.473-0.158l-1.412-1.577l-4.395,2.365h-0.628l-1.101-1.577
	l-0.783,0.158l-1.884,4.257l-0.94,3.941l-3.641,7.935l-1.581-1.119l-1.332-1.338l-1.556-10.034l-3.551-1.115l-1.331-2.23
	l-12.206-2.675l-2.439-1.115l-7.988-2.23l-7.989-1.115L577.565,125.54L577.565,125.54z"/>
<path id="WY_1_" class="state" fill="#999999" stroke="#FFFFFF" stroke-width="2" stroke-miterlimit="10" d="M372.604,157.012l-11.175-0.944
	l-31.148-3.214l-15.757-2.007l-27.519-4.013l-19.31-2.899l-1.377,10.9l-3.728,23.661l-5.104,29.655l-1.485,10.256l-1.62,11.595
	l6.333,0.905l16.393,2.229l8.573,1.147l19.967,2.406l36.173,4.014l23.747,2.007l4.217-43.257l1.557-24.75L372.604,157.012z"/>
<path id="MT_1_" class="state" fill="#999999" stroke="#FFFFFF" stroke-width="2" stroke-miterlimit="10" d="M374.798,136.354l0.784-11.345
	l2.189-24.331l1.332-14.716l1.226-13.879l-31.021-3.208l-28.403-3.468l-28.403-3.942l-31.386-5.203l-17.891-3.311l-31.766-6.761
	l-4.349,20.82l3.328,7.358l-1.332,4.459l1.775,4.459l3.106,1.338l3.552,10.034l3.551,3.567l0.443,1.115l3.329,1.115l0.443,2.007
	l-6.88,17.169v2.453l2.439,3.122h0.89l4.66-2.898l0.666-1.115l1.554,0.669l-0.223,5.128l2.662,12.263l2.886,2.453l0.889,0.669
	l1.775,2.229l-0.443,3.345l0.666,3.345l1.109,0.892l2.22-2.229h2.663l3.106,1.561l2.44-0.892h3.995l3.551,1.561l2.663-0.446
	l0.444-2.899l2.885-0.668l1.332,1.337l0.442,3.122l2.507,2.427l1.487-11.123l19.31,2.899l27.519,4.013l15.757,2.007l31.149,3.214
	l11.135,1.174l1.646-15.516L374.798,136.354L374.798,136.354z"/>
<path id="ID_1_" class="state" fill="#999999" stroke="#FFFFFF" stroke-width="2" stroke-miterlimit="10" d="M164.329,189.816l4.609-18.009
	l4.217-17.28l1.332-4.125l2.441-5.797l-1.221-2.229l-2.441,0.111l-0.775-1.003l0.443-1.115l0.333-3.01l4.328-5.351l1.774-0.446
	l1.109-1.115l0.557-3.122l0.888-0.669l3.771-5.688l3.772-4.237l0.222-3.679l-3.328-2.562l-1.276-4.292l0.389-9.42l3.551-16.054
	l4.328-20.29l3.662-13.156l0.738-3.709l13.707,2.622l-4.348,20.82l3.327,7.358l-1.332,4.459l1.775,4.459l3.107,1.338l3.551,10.034
	l3.551,3.567l0.443,1.115l3.33,1.115l0.442,2.007l-6.88,17.169v2.452l2.44,3.122h0.889l4.66-2.899l0.666-1.115l1.554,0.669
	l-0.222,5.128l2.662,12.263l2.885,2.453l0.889,0.669l1.775,2.229l-0.443,3.345l0.666,3.345l1.109,0.892l2.22-2.229h2.663
	l3.107,1.561l2.439-0.892h3.995l3.551,1.561l2.663-0.446l0.444-2.899l2.885-0.669l1.332,1.338l0.443,3.122l2.553,2.007
	l-3.662,23.858l-4.993,29.544l-4.661-0.78l-8.102-1.338l-9.986-1.784l-11.649-2.007l-12.317-2.286l-7.767-1.951l-8.988-1.784
	l-9.434-1.895L164.329,189.816L164.329,189.816z"/>
<path id="AZ_1_" class="state" fill="#999999" stroke="#FFFFFF" stroke-width="2" stroke-miterlimit="10" d="M161.506,394.557l-2.552,2.105
	l-0.312,1.418l0.472,0.947l18.359,10.4l11.771,7.41l14.279,8.355l16.32,9.775l11.927,2.365l25.95,3.42l1.989-12.98l3.643-26.256
	l6.762-51.889l4.134-30.043l-24.968-3.744l-26.41-4.459l-32.448-6.162l-2.836,17.645l-0.444,0.445l-1.665,2.564l-2.441-0.111
	l-1.221-2.676l-2.663-0.334l-0.888-1.115h-0.889l-0.888,0.559l-1.888,1.002l-0.11,6.801l-0.223,1.674l-0.555,12.265l-1.442,2.119
	l-0.555,3.229l2.662,4.795l1.222,5.688l0.774,1.004l1,0.56l-0.11,2.229l-1.554,1.339l-3.328,1.673l-1.887,1.895l-1.441,3.568
	l-0.557,4.793l-2.772,2.676l-1.998,0.67l-0.111,5.688l-0.442,1.672l0.442,0.78l3.552,0.558l-0.556,2.676l-1.44,2.119
	L161.506,394.557L161.506,394.557z"/>
<path id="NM_1_" class="state" fill="#999999" stroke="#FFFFFF" stroke-width="2" stroke-miterlimit="10" d="M303.327,437.182l-0.786-4.719
	l7.767,0.668l28.186,2.676l28.187,1.561l2.22-23.189l3.772-54.182l1.554-18.283l1.331,0.027l-0.014-11.428l-32.039-2.344
	l-35.857-4.316l-33.456-4.016l-4.076,29.998l-6.762,51.889l-3.643,26.256l-1.99,12.98l15.008,1.939l1.255-9.773l16.164,2.521
	L303.327,437.182L303.327,437.182z"/>
<path id="ND_1_" class="state" fill="#999999" stroke="#FFFFFF" stroke-width="2" stroke-miterlimit="10" d="M486.075,141.929l-0.666-8.25
	l-1.772-7.135l-1.775-13.156l-0.44-9.588l-1.775-3.344l-1.554-4.906V85.517l0.666-3.791l-1.898-5.363l-28.522-0.55l-18.047-0.631
	l-25.735-1.261l-24.216-1.837l-1.226,13.879l-1.332,14.716l-2.19,24.331l-0.628,11.844l54.527,3.515L486.075,141.929z"/>
<path id="IA_1_" class="state" fill="#999999" stroke="#FFFFFF" stroke-width="2" stroke-miterlimit="10" d="M578.786,213.057l0.056,1.784
	l2.22,0.669l0.888,1.115l0.443,1.784l3.772,3.344l0.666,2.23l-0.666,3.345l-1.774,3.567l-0.666,2.453l-2.22,1.784l-1.775,0.669
	l-5.104,1.337l-0.666,1.784l-0.666,2.007l0.666,1.338l1.773,1.561l-0.223,4.013l-1.775,1.561l-0.665,1.561v2.676l-1.772,0.446
	l-1.557,1.115l-0.222,1.338l0.222,2.007l-1.663,1.728l-3.22-3.289l-1.107-2.229l-7.546,0.668l-9.545,0.446l-24.634,0.892
	l-13.094,0.223l-9.1,0.223l-1.06,0.118l-1.604-5.247l-0.225-6.466l-1.553-4.014l-0.666-5.128l-2.221-3.568l-0.889-4.682
	l-2.662-7.355l-1.109-5.24l-1.332-2.119l-1.553-2.675l1.773-4.237l1.331-5.574l-2.663-2.007l-0.441-2.676l0.889-2.452h1.663h11.207
	l48.159-0.669l17.531-0.669l3.993-0.112l0.666,3.233l2.222,1.561l0.223,1.338l-1.998,3.345l0.224,3.122l2.438,3.791l2.441,1.115
	l2.885,0.446L578.786,213.057L578.786,213.057z"/>
<path id="WI_1_" class="state" fill="#999999" stroke="#FFFFFF" stroke-width="2" stroke-miterlimit="10" d="M623.005,210.159l0.14-4.114
	l-1.569-4.415l-0.627-5.991l-1.1-2.365l0.941-2.996l0.783-2.838l1.411-2.523l-0.628-3.311l-0.628-3.469l0.474-1.731l1.883-2.365
	l0.156-2.68l-0.783-1.262l0.628-2.522l0.471-3.153l2.668-5.518l2.824-6.622l0.157-2.208l-0.314-0.946l-0.784,0.473l-4.08,6.149
	l-2.668,3.941l-1.883,1.734l-0.784,2.208l-1.413,0.788l-1.099,1.892l-1.412-0.315l-0.156-1.734l1.256-2.365l2.039-4.572l1.729-1.577
	l1.065-2.235l-1.582-0.883l-1.33-1.338l-1.556-10.034l-3.551-1.115l-1.331-2.23l-12.206-2.675l-2.439-1.115l-7.988-2.23
	l-7.989-1.115l-4.048-5.271l-0.515,1.23l-1.101-0.158l-0.628-1.104l-2.668-0.788l-1.098,0.157l-1.729,0.946l-0.938-0.631
	l0.628-1.892l1.883-2.996l1.099-1.104l-1.883-1.419l-2.041,0.788l-2.824,1.892l-7.219,3.153l-2.824,0.631l-2.822-0.473l-0.953-0.856
	l-2.058,2.765l-0.222,2.675v8.25l-1.109,1.561l-5.104,3.791l-2.221,5.797l0.442,0.223l2.441,2.007l0.665,3.122l-1.775,3.122v3.791
	l0.444,6.466l2.885,2.898h3.329l1.775,3.122l3.326,0.446l3.772,5.574l6.88,4.014l1.997,2.676l0.889,7.247l0.665,3.233l2.223,1.561
	l0.222,1.338l-1.997,3.345l0.223,3.122l2.44,3.791l2.438,1.115l2.888,0.446l1.189,2.452h8.905l25.854-1.561L623.005,210.159
	L623.005,210.159z"/>
<path id="MO_1_" class="state" fill="#999999" stroke="#FFFFFF" stroke-width="2" stroke-miterlimit="10" d="M567.967,260.104l-3.107-3.122
	l-1.106-2.23l-7.547,0.669l-9.545,0.446l-24.634,0.892l-13.094,0.223l-7.656,0.112l-2.22,0.111l1.221,2.453l-0.222,2.229l2.439,3.79
	l2.996,4.014l2.995,2.676l2.221,0.223l1.332,0.892v2.899l-1.774,1.561l-0.444,2.229l1.997,3.345l2.441,2.899l2.439,1.784
	l1.331,11.374l-0.665,34.447l0.224,4.568l0.441,6.688l22.639-0.444l22.637-0.668l20.195-0.894l10.65-0.444l1.775,2.896l-0.444,2.23
	l-3.104,2.676l-0.666,2.897l5.99,0.446l4.884-0.67l1.998-6.242l-0.142-5.491l2.804-1.421l1.332-1.562l1.996-1.113l0.224-3.122
	l0.888-1.783l-1.332-2.368l-2.885,0.361l-1.775-2.008l-1.554-4.014l0.888-2.897l-1.997-3.121l-1.997-4.905l-4.438-0.669
	l-6.214-5.129l-2.22-3.791l0.666-3.12l2.219-5.798l0.666-3.567l-2.663-1.338l-6.214-0.446l-0.89-1.337l0.224-4.237l-5.326-3.567
	l-7.104-7.358l-2.221-7.135l-0.441-3.567L567.967,260.104L567.967,260.104z"/>
<path id="AR_1_" class="state" fill="#999999" stroke="#FFFFFF" stroke-width="2" stroke-miterlimit="10" d="M602.431,353.061l-4.727,0.916
	l-5.991-0.447l0.666-2.898l3.104-2.676l0.444-2.229l-1.775-2.898l-10.65,0.446l-20.195,0.892l-22.637,0.67l-22.64,0.445l1.557,6.688
	v8.027l1.332,10.703l0.222,36.902l2.22,1.895l2.886-1.338l2.662,1.115l0.641,10.953l21.555-0.027l18.644-0.893l10.484,0.139
	l1.443-2.592l-0.392-4.236l-1.332-2.898l1.332-1.338l-1.332-2.006l0.444-1.785l0.888-6.02l2.888-2.676l-0.666-2.006l3.552-5.129
	l2.663-0.893v-2.453l-0.666-1.338l2.663-5.129l2.662-1.113l-0.287-3.564l2.38-1.1l0.938-4.572l-1.412-3.469l3.926-2.209l0.312-2.521
	l1.312-4.273L602.431,353.061z"/>
<path id="KS_1_" class="state" fill="#999999" stroke="#FFFFFF" stroke-width="2" stroke-miterlimit="10" d="M517.368,334.354l-12.873,0.67
	l-45.051-0.445l-43.721-2.008l-23.439-1.227l4.021-64.216l21.193,0.781l39.278,1.338l42.832,0.446h5.882l2.996,2.676l2.222,0.223
	l1.332,0.892v2.899l-1.775,1.562l-0.444,2.229l1.998,3.345l2.44,2.899l2.438,1.784l1.332,11.373L517.368,334.354L517.368,334.354z"
	/>
<path id="LA_1_" class="state" fill="#999999" stroke="#FFFFFF" stroke-width="2" stroke-miterlimit="10" d="M613.571,477.94l-1.219-2.221
	l-1.109-3.791l-3.328-3.121l1.108-7.357l-0.666-0.893l-1.772,0.223l-7.989,0.67l-23.524,0.668l-0.441-1.561l0.666-7.805l3.329-6.02
	l5.104-8.918l-0.888-2.014h1.107l0.666-3.115l-2.221-1.783l0.225-1.785l-1.997-4.459l-0.333-5.355h-10.543l-18.645,0.896
	l-21.555,0.023l0.027,9.342l0.666,9.141l0.663,3.791l2.441,4.014l0.888,4.904l4.219,5.352l0.223,3.123l0.666,0.668l-0.666,8.25
	l-2.886,4.906l1.555,2.006l-0.666,2.453l-0.666,7.135l-1.332,3.121l0.119,3.527l4.55-1.482l7.846-0.314l10.044,3.469l6.276,1.105
	l3.609-1.42l3.139,1.104l3.139,0.947l0.784-2.051l-3.138-1.105l-2.512,0.473l-2.669-1.57c0,0,0.155-1.268,0.784-1.418
	c0.628-0.158,2.98-0.947,2.98-0.947l1.728,1.42l1.729-0.947l3.14,0.631l1.411,2.365l0.312,2.207l4.396,0.316l1.728,1.729
	l-0.783,1.576l-1.257,0.789l1.569,1.576l8.159,3.469l3.452-1.262l0.939-2.365l2.511-0.631l1.729-1.418l1.256,0.945l0.784,2.838
	l-2.196,0.789l0.627,0.631l3.296-1.262l2.196-3.311l0.784-0.475l-2.039-0.314l0.783-1.576l-0.155-1.42l2.04-0.473l1.099-1.262
	l0.627,0.785c0,0-0.153,2.994,0.629,2.994c0.783,0,4.079,0.637,4.079,0.637l3.924,1.891l0.941,1.42h2.824l1.099,0.945l2.197-2.996
	v-1.418h-1.257l-3.295-2.688l-5.648-0.785l-3.139-2.203l1.099-2.688l2.196,0.316l0.156-0.631l-1.729-0.945v-0.475h3.141l1.728-2.994
	l-1.257-1.893l-0.312-2.68l-1.411,0.156l-1.886,2.051l-0.627,2.52L609.968,484l-0.941-1.732l1.729-1.893l1.961-1.732L613.571,477.94
	L613.571,477.94z"/>
<path id="HI_1_" class="state" fill="#CCCCCC" stroke="#FFFFFF" stroke-width="2" stroke-miterlimit="10" d="M254.055,523.11l1.883-3.469
	l2.197-0.316l0.313,0.789l-2.041,2.996H254.055z M263.94,519.483l5.964,2.523l2.039-0.316l1.569-3.783l-0.628-3.311l-4.08-0.475
	l-3.923,1.734L263.94,519.483L263.94,519.483z M293.757,529.258l3.607,5.361l2.354-0.316l1.098-0.473l1.413,1.262l3.609-0.158
	l0.94-1.418l-2.825-1.734l-1.884-3.627l-2.039-3.469l-5.648,2.838L293.757,529.258L293.757,529.258z M313.373,537.93l1.254-1.893
	l4.552,0.947l0.627-0.48l5.963,0.631l-0.312,1.268l-2.513,1.42l-4.235-0.316L313.373,537.93z M318.552,542.975l1.883,3.785
	l2.981-1.105l0.312-1.576l-1.569-2.049l-3.607-0.316V542.975L318.552,542.975z M325.3,541.872l2.196-2.838l4.552,2.365l4.234,1.104
	l4.237,2.68v1.896l-3.453,1.73l-4.708,0.945l-2.354-1.418L325.3,541.872L325.3,541.872z M341.463,557.008l1.566-1.262l3.296,1.576
	l7.377,3.469l3.297,2.051l1.565,2.363l1.884,4.258l3.926,2.523l-0.313,1.26l-3.767,3.154l-4.08,1.418l-1.412-0.631l-2.98,1.729
	l-2.354,3.154l-2.196,2.838l-1.727-0.158l-3.452-2.52l-0.313-4.416l0.628-2.365l-1.567-5.52l-2.04-1.732l-0.157-2.521l2.197-0.943
	l2.04-2.996l0.471-0.945l-1.568-1.734L341.463,557.008L341.463,557.008z"/>
<path id="FL_1_" class="state" fill="#CCCCCC" stroke="#FFFFFF" stroke-width="2" stroke-miterlimit="10" d="M761.241,450.268l2.027,8l3.62,9.502
	l5.179,9.145l3.609,6.148l4.708,5.361l3.923,3.625l1.568,2.838l-1.101,1.262l-0.784,1.262l2.824,7.252l2.825,2.838l2.511,5.203
	l3.452,5.676l4.396,8.041l1.255,7.412l0.472,11.666l0.627,1.734l-0.312,3.311l-2.354,1.262l0.314,1.896l-0.628,1.893l0.312,2.363
	l0.472,1.895L797.489,563l-2.979,1.418l-3.768,0.158l-1.413,1.576l-2.354,0.941l-1.256-0.473l-1.098-0.945l-0.314-2.838
	l-0.784-3.311l-3.296-5.047l-3.452-2.207l-3.767-0.314l-0.784,1.262l-2.98-4.258l-0.629-3.469l-2.511-3.941l-1.727-1.104
	l-1.569,2.049l-1.726-0.311l-2.04-4.895l-2.825-3.783l-2.824-5.197l-2.511-2.996l-3.453-3.625l2.04-2.365l3.14-5.361l-0.156-1.576
	l-4.396-0.945l-1.569,0.631l0.314,0.629l2.512,0.947l-1.412,4.414l-0.785,0.473l-1.728-3.938l-1.255-4.73l-0.312-2.68l1.412-4.572
	v-9.303l-2.979-3.625l-1.256-2.996l-5.021-1.262l-1.884-0.635l-1.568-2.52l-3.296-1.578l-1.099-3.311l-2.668-0.945l-2.354-3.627
	l-4.08-1.418l-2.823-1.42h-2.513l-3.924,0.789l-0.156,1.891l0.785,0.947l-0.472,1.104l-2.98-0.158l-3.607,3.471l-3.452,1.893h-3.769
	l-3.14,1.262l-0.312-2.682l-1.568-1.893l-2.825-1.105l-1.568-1.418l-7.846-3.785l-7.377-1.73l-4.236,0.631l-5.807,0.475
	l-5.807,2.049l-3.377,0.6l-0.23-7.854l-2.512-1.891l-1.729-1.734l0.314-2.996l9.887-1.262l24.793-2.838l6.593-0.631l5.964-0.156
	l2.512,3.783l1.412,1.418l7.688,0.158l10.504-0.633l20.884-1.264l5.285-0.654l4.442,0.025l0.156,2.838l2.512,0.787l0.312-4.256
	l-1.568-4.416l1.099-1.576l5.649,0.789L761.241,450.268L761.241,450.268z M773.247,580.264l2.354-0.631l1.256-0.236l1.412-2.287
	l2.275-1.576l1.256,0.473l1.646,0.316l0.396,1.023l-3.374,1.184l-4.08,1.418l-2.275,1.184L773.247,580.264z M786.351,575.375
	l1.177,1.025l2.668-2.055l5.181-4.1l3.607-3.785l2.436-6.463l0.938-1.656l0.156-3.311l-0.706,0.473l-0.941,2.766l-1.41,4.486
	l-3.141,5.125l-4.235,4.105l-3.296,1.891L786.351,575.375z"/>
<path id="SC_1_" class="state" fill="#CCCCCC" stroke="#FFFFFF" stroke-width="2" stroke-miterlimit="10" d="M766.732,419.366l-1.726,0.945
	l-2.514-1.26L761.868,417l-1.256-3.469l-2.194-2.049l-2.513-0.637l-1.567-4.729l-2.668-5.834l-4.08-1.891l-2.04-1.895l-1.255-2.522
	l-2.04-1.892l-2.197-1.262l-2.197-2.84l-2.979-2.207l-4.396-1.732l-0.471-1.42l-2.354-2.838l-0.471-1.418l-3.295-5.046l-3.297,0.155
	l-3.923-2.364l-1.256-1.262l-0.313-1.731l0.785-1.895l2.196-0.943l-0.313-2.053l5.964-2.521l8.788-4.416l7.062-0.787l16.007-0.475
	l2.196,1.893l1.567,3.154l4.236-0.476l12.24-1.418l2.823,0.788l12.239,7.408l9.812,7.922l-5.265,5.324l-2.512,5.989l-0.471,6.147
	l-1.568,0.789l-1.1,2.681l-2.354,0.631l-2.041,3.47l-2.668,2.682l-2.193,3.312l-1.569,0.787l-3.452,3.311l-2.824,0.156l0.94,3.154
	l-4.864,5.357L766.732,419.366L766.732,419.366z"/>
<path id="GA_1_" class="state" fill="#CCCCCC" stroke="#FFFFFF" stroke-width="2" stroke-miterlimit="10" d="M697.215,365.76l-4.708,0.787
	l-8.16,1.104l-8.317,0.867v2.129l0.157,2.051l0.628,3.311l3.295,7.728l2.354,9.618l1.412,5.988l1.566,4.73l1.412,6.779l2.04,6.148
	l2.511,3.311l0.474,3.312l1.884,0.787l0.156,2.051l-1.729,4.729l-0.472,3.154l-0.156,1.893l1.569,4.256l0.312,5.203l-0.784,2.365
	l0.629,0.789l1.412,0.787l0.627,3.311l2.514,3.785l1.412,1.418l7.688,0.158l10.503-0.631l20.882-1.262l5.287-0.656l4.442,0.025
	l0.157,2.84l2.511,0.787l0.312-4.256l-1.565-4.416l1.098-1.576l5.649,0.789l4.832,0.309l-0.754-6.143l2.195-9.775l1.412-4.1
	l-0.471-2.521l3.923-6.779l-0.581-1.578l-1.771,0.945l-2.512-1.26L761.868,417l-1.255-3.469l-2.194-2.049l-2.514-0.637l-1.566-4.729
	l-2.668-5.834l-4.08-1.891l-2.04-1.895l-1.255-2.522l-2.04-1.892l-2.197-1.262l-2.197-2.84l-2.979-2.208l-4.396-1.731l-0.471-1.42
	l-2.354-2.838l-0.471-1.418l-3.295-5.049l-3.296,0.158l-3.923-2.364l-1.256-1.263l-0.313-1.73l0.784-1.895l2.197-0.946l-0.157-2.229
	l-1.726,0.492l-5.649,0.947l-6.748,0.787L697.215,365.76L697.215,365.76z"/>
<path id="AL_1_" class="state" fill="#CCCCCC" stroke="#FFFFFF" stroke-width="2" stroke-miterlimit="10" d="M635.071,471.87l-1.565-14.822
	l-2.668-18.289l0.153-13.717l0.785-30.271l-0.155-16.239l0.159-6.261l7.529-0.36l26.99-2.523l9.873-0.865l-0.146,2.129l0.158,2.053
	l0.627,3.311l3.295,7.727l2.354,9.617l1.41,5.99l1.569,4.73l1.412,6.779l2.039,6.145l2.512,3.312l0.472,3.311l1.886,0.787
	l0.153,2.051l-1.726,4.73l-0.471,3.152l-0.157,1.895l1.569,4.256l0.312,5.203l-0.784,2.365l0.628,0.789l1.412,0.785l0.784,3.471
	h-6.12l-6.591,0.631l-24.794,2.838l-9.888,1.262l-0.312,2.996l1.729,1.734l2.511,1.891l0.562,7.74l-6.371,2.51l-2.668-0.312
	l2.668-1.895v-0.947l-2.979-5.834l-2.196-0.631l-1.412,4.258l-1.256,2.684l-0.628-0.156h-2.666v-0.006h0.003V471.87z"/>
<path id="NC_1_" class="state" fill="#CCCCCC" stroke="#FFFFFF" stroke-width="2" stroke-miterlimit="10" d="M835.532,307.729l1.66,4.582
	l3.452,6.307l2.354,2.365l0.627,2.207l-2.354,0.158l0.784,0.631l-0.313,4.1l-2.511,1.262l-0.628,2.052l-1.256,2.838l-3.609,1.573
	l-2.354-0.311l-1.412-0.16l-1.569-1.262l0.313,1.262v0.944h1.884l0.784,1.263l-1.884,6.147h4.08l0.627,1.578l2.195-2.208
	l1.258-0.475l-1.885,3.469l-2.979,4.73h-1.256l-1.101-0.475l-2.668,0.631l-5.021,2.363l-6.277,5.203l-3.295,4.572l-1.885,6.307
	l-0.471,2.363l-4.553,0.476l-5.722,2.166l-9.655-8l-12.24-7.41l-2.822-0.788l-12.24,1.418l-4.237,0.475l-1.567-3.151l-2.195-1.894
	l-16.008,0.473l-7.062,0.789l-8.788,4.414l-5.963,2.523l-1.566,0.312l-5.649,0.945l-6.748,0.787l-6.591,0.475l0.312-4.729
	l1.729-1.422l2.668-0.63l0.627-3.626l4.08-2.682l3.767-1.42l4.08-3.469l4.237-2.051l0.627-2.995l3.768-3.784l0.628-0.156
	c0,0,0,1.104,0.784,1.104s1.884,0.312,1.884,0.312l2.196-3.469l2.039-0.631l2.197,0.314l1.568-3.469l2.823-2.522l0.474-2.05v-3.862
	l4.394,0.709l6.927-1.261l15.357-1.893l16.634-2.523l19.999-3.68l18.605-3.729l11.142-2.838L835.532,307.729L835.532,307.729z
	 M839.313,339.901l2.512-2.443l3.062-2.521l1.49-0.63l0.155-1.973l-0.629-5.992l-1.41-2.284l-0.629-1.812l0.706-0.236l2.668,5.361
	l0.395,4.336l-0.157,3.311l-3.295,1.498l-2.746,2.365l-1.099,1.182L839.313,339.901z"/>
<path id="TN_1_" class="state" fill="#CCCCCC" stroke="#FFFFFF" stroke-width="2" stroke-miterlimit="10" d="M704.434,329.338l-50.374,4.889
	l-15.298,1.732l-4.485,0.502l-3.756-0.027v3.783l-8.16,0.473l-6.748,0.631l-10.771,0.053l-0.257,5.69l-2.076,6.12l-0.966,2.941
	l-1.312,4.271l-0.312,2.521l-3.923,2.207l1.411,3.471l-0.94,4.257l-1.491,1.653l7.925-0.076l23.385-1.895l5.18-0.158l7.846-0.473
	l26.991-2.523l9.873-0.785l8.174-0.945l8.16-1.104l4.708-0.787l0.312-4.729l1.729-1.422l2.668-0.631l0.627-3.626l4.08-2.683
	l3.767-1.42l4.08-3.469l4.237-2.049l0.628-2.996l3.767-3.785l0.629-0.156c0,0,0,1.105,0.783,1.105c0.784,0,1.885,0.312,1.885,0.312
	l2.195-3.469l2.039-0.632l2.197,0.313l1.568-3.469l2.823-2.521l0.474-2.051l0.171-3.836l-2.212,0.053l-2.354,1.895l-7.688,0.156
	l-11.646,1.854L704.434,329.338z"/>
<path id="RI_1_" class="state" fill="#CCCCCC" stroke="#FFFFFF" stroke-width="2" stroke-miterlimit="10" d="M876.267,192.013l-0.469-4.101
	l-0.784-4.257l-1.647-5.755l5.57-1.498l1.569,1.104l3.296,4.257l2.823,4.337l-2.825,1.498l-1.256-0.157l-1.102,1.734l-2.354,1.892
	L876.267,192.013z"/>
<path id="MA_1_" class="state" fill="#CCCCCC" stroke="#FFFFFF" stroke-width="2" stroke-miterlimit="10" d="M901.415,186.188l2.105-0.669
	l0.444-1.672l0.998,0.111l0.999,2.229l-1.223,0.446l-3.771,0.111L901.415,186.188L901.415,186.188z M892.316,186.968l2.22-2.562
	h1.556l1.772,1.449l-2.33,1.003l-2.105,1.004L892.316,186.968z M858.536,165.523l16.945-4.1l2.196-0.63l2.041-3.153l3.627-1.622
	l2.805,4.304l-2.354,5.045l-0.314,1.419l1.886,2.522l1.099-0.788h1.728l2.196,2.522l3.767,5.833l3.451,0.473l2.197-0.946
	l1.728-1.734l-0.783-2.68l-2.04-1.577l-1.412,0.789l-0.941-1.261l0.473-0.473l2.041-0.158l1.727,0.788l1.883,2.365l0.941,2.838
	l0.312,2.365l-4.08,1.419l-3.768,1.892l-3.77,4.415l-1.883,1.419v-0.946l2.354-1.419l0.471-1.734l-0.784-2.995l-2.824,1.419
	l-0.782,1.419l0.471,2.207l-2.667,1.418l-2.666-4.416l-3.296-4.257l-1.569-1.104l-5.568,1.498l-4.942,1.024l-21.188,4.651
	l-0.938-5.597l0.628-10.327l5.021-0.867L858.536,165.523"/>
<path id="ME_1_" class="state" fill="#CCCCCC" stroke="#FFFFFF" stroke-width="2" stroke-miterlimit="10" d="M923.973,92.053l1.883,2.049
	l2.197,3.626v1.892l-2.04,4.573l-1.883,0.63l-3.296,2.996l-4.708,5.36c0,0-0.628,0-1.256,0c-0.627,0-0.941-2.05-0.941-2.05
	l-1.727,0.158l-0.94,1.419l-2.354,1.419l-0.938,1.419l1.568,1.419l-0.472,0.63l-0.472,2.68l-1.883-0.157v-1.577l-0.313-1.261
	l-1.412,0.315l-1.728-3.153l-2.04,1.261l1.256,1.419l0.312,1.104l-0.783,1.261l0.312,2.996l0.156,1.577l-1.568,2.522l-2.823,0.473
	l-0.313,2.838l-5.179,2.996l-1.256,0.473l-1.568-1.419l-2.979,3.469l0.939,3.153l-1.413,1.261l-0.156,4.257l-1.53,7.433
	l-2.391-1.127l-0.472-2.996l-3.767-1.104l-0.313-2.68l-7.062-22.862l-4.625-14.409l2.369-0.337l1.472,0.4v-2.522l0.782-5.361
	l2.513-4.572l1.412-3.941l-1.884-2.365v-5.833l0.784-0.946l0.783-2.681l-0.155-1.419l-0.155-4.729l1.727-4.73l2.824-8.671
	l2.039-4.099h1.256l1.257,0.157v1.104l1.256,2.207l2.667,0.631l0.785-0.789v-0.946l3.923-2.838l1.728-1.734l1.411,0.158l5.809,2.365
	l1.884,0.946l8.788,29.168h5.806l0.785,1.892l0.157,4.73l2.821,2.208h0.784l0.157-0.473l-0.471-1.104L923.973,92.053z
	 M903.653,121.455l1.491-1.498l1.334,1.025l0.549,2.365l-1.646,0.867L903.653,121.455L903.653,121.455z M910.165,115.7l1.728,1.812
	c0,0,1.255,0.079,1.255-0.236s0.235-1.971,0.235-1.971l0.862-0.789l-0.783-1.734l-1.962,0.71L910.165,115.7z"/>
<path id="NH_1_" class="state" fill="#CCCCCC" stroke="#FFFFFF" stroke-width="2" stroke-miterlimit="10" d="M883.35,155.98l0.293-1.492
	l1.058-3.21l-2.468-0.891l-0.472-2.996l-3.766-1.104l-0.314-2.68l-7.062-22.862l-4.466-14.184l-0.871-0.005l-0.628,1.577
	l-0.628-0.473l-0.938-0.946l-1.412,1.892l-0.932,5.35l0.306,5.527l1.883,2.68v3.942l-3.608,3.941l-2.512,1.104v1.104l1.1,1.734
	v8.354l-0.782,8.987l-0.157,4.73l0.939,1.261l-0.155,4.415l-0.473,1.734l1.413,1.971l16.791-4.021l2.195-0.63l2.041-3.153
	L883.35,155.98L883.35,155.98z"/>
<path id="VT_1_" class="state" fill="#CCCCCC" stroke="#FFFFFF" stroke-width="2" stroke-miterlimit="10" d="M847.079,167.889l-0.783-5.519
	l-2.981-10.721l-0.628-0.315l-2.824-1.261l0.784-2.838l-0.784-2.05l-2.512-4.415l0.942-3.784l-0.785-5.045l-2.354-6.307
	l-0.779-4.801l26.357-7.023l0.314,5.675l1.883,2.68v3.942l-3.607,3.942l-2.513,1.104v1.104l1.1,1.734v8.356l-0.782,8.987
	l-0.157,4.73l0.939,1.261l-0.155,4.415l-0.473,1.734l1.413,1.971l-6.748,1.34L847.079,167.889z"/>
<path id="NY_1_" class="state" fill="#CCCCCC" stroke="#FFFFFF" stroke-width="2" stroke-miterlimit="10" d="M831.702,202.26l-1.1-0.946
	l-2.51-0.158l-2.197-1.892l-2.354-5.203l-2.916-0.908l-2.266-2.088l-18.046,3.941l-41.741,8.514l-8.631,1.419l-0.718-6.751
	l2.599-1.761l1.258-1.104l0.938-1.576l1.729-1.104l1.883-1.734l0.471-1.577l2.041-2.68l1.098-0.946l-0.153-0.946l-1.257-2.996
	l-1.729-0.158l-1.883-5.991l2.824-1.734l4.234-1.419l3.926-1.261l3.14-0.473l6.12-0.158l1.883,1.261l1.568,0.158l2.041-1.262
	l2.511-1.104l5.021-0.473l2.041-1.734l1.729-3.153l1.566-1.893h2.041l1.883-1.104l0.156-2.207l-1.412-2.05l-0.312-1.419l1.1-2.05
	v-1.419h-1.728l-1.728-0.788l-0.785-1.104l-0.155-2.522l5.647-5.361l0.627-0.788l1.412-2.838l2.825-4.415l2.668-3.626l2.04-2.365
	l2.344-1.78l2.991-1.215l5.336-1.261l3.142,0.158l4.394-1.419l7.345-2.02l0.504,4.856l2.354,6.307l0.784,5.045l-0.941,3.784
	l2.512,4.415l0.784,2.05l-0.784,2.838l2.824,1.261l0.628,0.315l2.981,10.721l0.471,5.045l-0.471,10.563l0.783,5.361l0.783,3.469
	l1.412,7.095v7.883l-1.099,2.208l1.784,1.943l-0.22,1.526l-1.883,1.734l0.313,1.261l1.256-0.315l1.412-1.261l2.197-2.523l1.098-0.63
	l1.568,0.63l2.195,0.158l7.689-3.784l2.824-2.68l1.256-1.419l4.08,1.577l-3.299,3.469l-3.766,2.838l-6.905,5.203l-2.511,0.946
	l-5.647,1.892l-3.925,1.104l-1.471-0.52l-0.565-3.266l0.472-2.68l-0.157-2.049l-2.511-1.104l-4.396-0.946l-3.768-1.104
	L831.702,202.26z"/>
<path id="PA_1_" class="state" fill="#CCCCCC" stroke="#FFFFFF" stroke-width="2" stroke-miterlimit="10" d="M827.465,238.05l1.099-0.631
	l2.196-1.261l1.413-2.68l1.566-2.208l3.141-2.996v-0.788l-2.354-1.577l-3.452-2.365l-0.94-2.522l-2.667-0.315l-0.157-1.104
	l-0.784-2.68l2.196-1.104l0.157-2.365l-1.256-1.262l0.155-1.576l1.885-2.996v-2.996l2.273-2.365l-1.334-0.946l-2.511-0.157
	l-2.196-1.896l-2.354-5.203l-2.916-0.908l-2.265-2.088l-18.046,3.941l-41.743,8.514l-8.631,1.419l-0.479-6.909l-5.327,5.491
	l-1.256,0.473l-4.078,2.935l2.825,18.665l1.638,10.485l3.468,18.786l4.495-0.733l11.594-1.465l36.816-7.476l14.438-2.753l8.06-1.582
	l1.25-1.229l2.041-1.577L827.465,238.05L827.465,238.05z"/>
<path id="DE_1_" class="state" fill="#CCCCCC" stroke="#FFFFFF" stroke-width="2" stroke-miterlimit="10" d="M826.364,241.362l0.786-2.051
	l0.235-1.261h-1.961l-2.04,1.577l-1.413,1.419l1.413,4.099l2.196,5.519l2.039,9.46l1.568,6.149l4.864-0.158l5.962-1.182
	l-2.197-7.174l-0.939,0.473l-3.452-2.365l-1.729-4.572l-1.884-3.469l-2.196-0.946l-2.04-3.468L826.364,241.362z"/>
<path id="WV_1_" class="state" fill="#CCCCCC" stroke="#FFFFFF" stroke-width="2" stroke-miterlimit="10" d="M763.3,252.621l1.08,4.822
	l0.938,5.519l0.313-0.315l2.04-2.365l2.194-2.996l2.354-0.157l1.412-1.419l1.727-2.523l1.257,0.63l2.823-0.315l2.511-2.05
	l1.948-1.417l1.791-0.473l1.597,1.102l2.824,1.419l1.883,1.734l1.334,1.262l-1.02,4.888l-5.493-2.996l-4.394-1.734l-0.157,5.203
	l-0.471,2.05l-1.569,2.681l-0.627,1.576l-2.98,2.365l-0.473,2.207l-3.295,0.315l-0.312,2.996l-1.1,5.36h-2.511l-1.256-0.788
	l-1.569-2.681l-1.726,0.158l-0.313,4.257l-2.041,6.464l-4.863,10.563l0.783,1.262l-0.155,2.681l-2.039,1.894l-1.412-0.314
	l-3.142,2.363l-2.51-0.943l-1.728,4.571c0,0-3.608,0.786-4.236,0.944s-2.354-1.262-2.354-1.262l-2.354,2.207l-2.511,0.631
	l-2.824-0.787l-1.256-1.262l-2.128-2.949l-3.052-1.938l-2.513-2.682l-2.822-3.627l-0.629-2.208l-2.512-1.419l-0.785-1.577
	l-0.232-5.124l2.117-0.079l1.885-0.789l0.156-2.68l1.566-1.419l0.157-4.888l0.938-3.784l1.258-0.63l1.256,1.104l0.471,1.734
	l1.727-0.946l0.474-1.577l-1.101-1.734v-2.365l0.941-1.261l2.196-3.311l1.256-1.419l2.04,0.473l2.193-1.577l2.982-3.311l2.196-3.784
	l0.312-5.518l0.473-4.888v-4.572l-1.1-2.996l0.94-1.419l1.245-1.262l3.391,19.337l4.494-0.733L763.3,252.621L763.3,252.621z"/>
<path id="VA_1_" class="state" fill="#CCCCCC" stroke="#FFFFFF" stroke-width="2" stroke-miterlimit="10" d="M729.542,306.477l1.883,3.469
	l1.255,1.262l2.825,0.787l2.511-0.629l2.354-2.209c0,0,1.727,1.42,2.354,1.262c0.627-0.156,4.236-0.945,4.236-0.945l1.727-4.569
	l2.512,0.942l3.141-2.362l1.412,0.313l2.039-1.893l0.155-2.68l-0.784-1.262l4.864-10.564l2.04-6.464l0.312-4.257l1.728-0.158
	l1.569,2.681l1.256,0.788h2.51l1.1-5.36l0.313-2.996l3.295-0.315l0.472-2.207l2.981-2.365l0.627-1.576l1.569-2.681l0.471-2.05
	l0.156-5.203l4.395,1.734l5.493,2.996l0.784-4.967l4.08,1.971v2.838l5.336,1.261l1.883,1.261l0.94-1.892l2.195,1.577l-1.412,3.153
	l-0.312,2.68l-1.729,2.522v2.05l0.628,1.734l4.916,1.322l1.83,1.517l5.021,0.315l2.512,2.208l3.14,0.63l1.257,1.262l-0.474,4.414
	l0.941,0.946l0.156,2.207l1.256,2.05l-0.157,1.734l-3.139-1.104v0.946l1.885,1.577v1.104l1.412,1.104l1.254,1.576l0.157,2.207
	l-2.196,1.42l0.312,0.475l2.512-0.475l3.139-0.631l1.101-0.158l3.955,6.855l-4.738,1.658l-11.144,2.84l-18.604,3.729l-19.999,3.682
	l-16.637,2.521l-15.354,1.894l-6.928,1.263l-4.381-0.605l-2.056-0.026l-2.354,1.894l-7.688,0.158l-11.64,1.852l-9.706,0.908
	l2.676-1.344l5.492-3.312l3.769-2.051v-2.051l1.727-1.732l4.396-5.203l4.078-3.469L729.542,306.477L729.542,306.477z"/>
<path id="OH_1_" class="state" fill="#CCCCCC" stroke="#FFFFFF" stroke-width="2" stroke-miterlimit="10" d="M738.801,206.711l-6.906,4.063
	l-3.767,2.208l-3.295,3.626l-3.926,3.784l-3.14,0.788l-2.824,0.473l-5.336,2.523l-2.039,0.158l-3.296-2.996l-5.021,0.63
	l-2.512-1.419l-2.312-1.317l-4.749,0.686l-9.887,1.577l-7.532,1.183l1.255,14.271l1.729,13.402l2.512,22.861l0.549,5.597
	l4.002-0.236l2.354-0.789l2.823,1.577l1.569,4.257l5.647,0.315l1.728,1.734l2.04,0.158l2.354-1.419l2.981,0.473l1.255,1.419
	l2.668-2.522l1.729-1.262h1.566l0.627,2.681l1.729,0.946l3.375,2.286l2.117-0.079l1.885-0.789l0.154-2.68l1.568-1.419l0.157-4.888
	l0.939-3.784l1.257-0.63l1.256,1.104l0.471,1.734l1.728-0.946l0.472-1.577l-1.1-1.731v-2.365l0.94-1.261l2.196-3.312l1.256-1.419
	l2.041,0.473l2.194-1.577l2.98-3.312l2.196-3.784l0.312-5.518l0.473-4.888v-4.572l-1.101-2.996l0.94-1.419l1.334-0.71l-1.805-10.485
	L738.801,206.711L738.801,206.711z"/>
<path id="WA_1_" class="state" fill="#CCCCCC" stroke="#FFFFFF" stroke-width="2" stroke-miterlimit="10" d="M118.625,22.837l4.237,1.419
	l9.416,2.68l8.316,1.892l19.458,5.518l22.284,5.521l15.65,3.624l-0.976,3.788l-3.662,13.156l-4.328,20.29l-3.55,16.054l-0.187,9.46
	l-13.573-3.329l-14.647-3.456l-14.979,0.112l-0.443-1.338l-5.326,2.007l-4.328-0.558l-2.329-1.561l-1.222,0.669l-4.55-0.223
	l-1.664-1.338l-5.104-2.006l-0.776,0.111l-4.218-1.449l-1.885,1.784l-5.992-0.334l-5.771-4.013l0.666-0.781l0.223-7.581l-2.22-3.791
	l-3.994-0.558l-0.666-2.453l-2.284-0.455l-1.863-1.461l-1.728,0.946l-2.196-2.838l0.312-2.838l2.668-0.315l1.569-3.942l-2.512-1.104
	l0.156-3.626l4.237-0.631l-2.668-2.68l-1.413-6.938l0.628-2.838v-7.726l-1.727-3.153l2.197-9.145l2.041,0.473l2.354,2.838
	l2.668,2.522l3.138,1.892l4.395,2.049l2.98,0.631l2.825,1.419l3.295,0.946l2.197-0.158v-2.365l1.255-1.104l2.04-1.261l0.314,1.104
	l0.312,1.734l-2.197,0.472l-0.313,2.05l1.728,1.419l1.1,2.365l0.627,1.892l1.412-0.158l0.156-1.262l-0.941-1.261l-0.471-3.153
	l0.784-1.734l-0.627-1.419v-2.208l1.728-3.469l-1.1-2.522l-2.354-4.73l0.313-0.789L118.625,22.837z M109.445,28.668l1.962-0.158
	l0.471,1.34l1.492-1.577h2.273l0.785,1.498l-1.491,1.656l0.628,0.788l-0.707,1.971l-1.333,0.395c0,0-0.862,0.079-0.862-0.236
	c0-0.312,1.412-2.521,1.412-2.521l-1.646-0.552l-0.314,1.419l-0.704,0.63l-1.492-2.207L109.445,28.668L109.445,28.668z"/>
<path id="TX_1_" class="state" fill="#CCCCCC" stroke="#FFFFFF" stroke-width="2" stroke-miterlimit="10" d="M374.39,341.768l22.026,1.061
	l30.183,1.113l-1.332,23.189l-0.443,17.393l0.225,1.561l4.217,3.567l1.997,1.114l0.666-0.223l0.666-2.006l1.331,1.78h1.997v-1.338
	l2.664,1.338l-0.444,3.791l3.995,0.226l2.438,1.115l3.994,0.668l2.441,1.785l2.219-2.011l3.329,0.673l2.441,3.344h0.888v2.229
	l2.22,0.668l2.22-2.229l1.774,0.67h2.441l0.888,2.453l4.66,1.783l1.332-0.668l1.772-4.02h1.109l1.108,2.006l3.994,0.67l3.553,1.344
	l2.885,0.891l1.773-0.891l0.666-2.453h4.219l1.997,0.891l2.663-2.006h1.107l0.665,1.561h3.995l1.554-2.006l1.775,0.445l1.997,2.453
	l3.104,1.783l3.106,0.893l2.663,1.227l2.22,1.895l2.885-1.338l2.663,1.115l0.652,10.828l0.014,9.463l0.666,9.141l0.665,3.791
	l2.441,4.014l0.888,4.904l4.217,5.352l0.224,3.123l0.666,0.668l-0.666,8.25l-2.887,4.906l1.557,2.006l-0.666,2.453l-0.666,7.135
	l-1.331,3.121l0.271,3.496l-6.274,1.703l-9.573,4.414l-0.941,1.893l-2.511,1.896l-2.04,1.42l-1.255,0.789l-5.493,5.201l-2.667,2.051
	l-5.179,3.152l-5.493,2.359l-6.12,3.312l-1.726,1.42l-5.649,3.469l-3.296,0.631l-3.767,5.359l-3.924,0.314l-0.94,1.895l2.196,1.891
	l-1.411,5.361l-1.257,4.414l-1.101,3.785l-0.782,4.414l0.782,2.363l1.729,6.779l0.939,5.99l1.729,2.682l-0.941,1.418l-2.979,1.895
	l-5.491-3.783l-5.335-1.105l-1.257,0.479l-3.141-0.631l-4.08-2.996l-5.021-1.105l-7.376-3.311l-2.04-3.785l-1.255-6.307
	l-3.142-1.895l-0.628-2.207l0.628-0.631l0.313-3.311l-1.255-0.629l-0.628-0.947l1.256-4.256l-1.569-2.209l-3.139-1.262l-3.296-4.258
	l-3.452-6.465l-4.08-2.52l0.157-1.896l-5.182-11.979l-0.783-4.104l-1.728-1.893l-0.157-1.418l-5.806-5.203l-2.513-2.996v-1.105
	l-2.511-2.049l-6.593-1.104l-7.219-0.631l-2.979-2.207l-4.396,1.734l-3.453,1.418l-2.194,3.154l-0.94,3.625l-4.237,5.992
	l-2.354,2.359l-2.514-0.941l-1.726-1.105l-1.884-0.631l-3.769-2.207v-0.631l-1.728-1.891l-5.021-2.055l-7.22-7.564l-2.196-4.572
	v-7.883l-3.14-6.311l-0.472-2.68l-1.568-0.945l-1.099-2.051l-4.865-2.049l-1.255-1.578l-6.904-7.725l-1.255-3.154l-4.552-2.207
	l-1.412-4.256l-2.511-2.838l-1.883-0.477l-0.631-4.561l7.769,0.668l28.186,2.676l28.187,1.562l2.221-23.189l3.771-54.183
	l1.554-18.282l1.331,0.024 M471.634,569.936l-0.55-6.938l-2.668-7.016l-0.552-6.859l1.491-8.041l3.217-6.699l3.374-5.283
	l3.062-3.469l0.628,0.238l-4.63,6.463l-4.236,6.387l-1.962,6.463l-0.312,5.047l0.861,5.99l2.514,7.016l0.471,5.047l0.156,1.418
	L471.634,569.936z"/>
<path id="CA_1_" class="state" fill="#CCCCCC" stroke="#FFFFFF" stroke-width="2" stroke-miterlimit="10" d="M161.152,394.456l4.017-0.789
	l1.44-2.119l0.556-2.676l-3.552-0.557l-0.442-0.781l0.442-1.672l0.111-5.686l1.998-0.67l2.772-2.676l0.557-4.793l1.441-3.568
	l1.887-1.895l3.329-1.676l1.553-1.337l0.11-2.229l-1-0.559l-0.774-1.004l-1.221-5.688l-2.663-4.795l0.562-3.188l-2.446-3.167
	l-14.093-22.188l-18.864-28.319l-22.082-33l-12.02-18.12l1.588-6.404l6.77-25.307l7.879-30.659l-13.094-3.567l-13.096-3.345
	l-12.206-4.014l-7.323-2.007l-11.097-2.898l-6.844-2.352l-1.534,4.608l-0.157,7.252l-5.021,11.509l-2.981,2.523l-0.312,1.104
	l-1.729,0.789l-1.411,4.099l-0.785,3.153l2.668,4.099l1.567,4.1l1.101,3.469l-0.314,6.307l-1.727,2.995l-0.627,5.676l-0.941,3.626
	l1.727,3.784l2.668,4.415l2.196,4.73l1.255,3.942l-0.312,3.153l-0.314,0.473v2.05l5.492,6.148l-0.471,2.365l-0.627,2.207
	l-0.629,1.892l0.157,8.041l2.039,3.626l1.884,2.523l2.668,0.473l0.94,2.68l-1.099,3.469l-2.04,1.577h-1.098l-0.785,3.784
	l0.471,2.838l3.139,4.257l1.569,5.204l1.413,4.571l1.255,2.994l3.295,5.678l1.413,2.521l0.471,2.838l1.569,0.945v2.364l-0.785,1.894
	l-1.729,6.938l-0.471,1.894l2.354,2.681l4.08,0.476l4.394,1.733L83,339.269h2.826l2.824,2.996l2.512,4.729l1.1,2.209l3.767,2.049
	l4.707,0.789l1.412,2.049l0.628,3.154l-1.413,0.629l0.314,0.947l3.139,0.787l2.667,0.155l2.825,4.569l3.766,4.103l0.785,2.207
	l2.512,4.103l0.312,3.151v9.146l0.471,1.732l9.729,1.418l19.146,2.682L161.152,394.456L161.152,394.456z M75.159,345.34l1.254,1.498
	l-0.156,1.262l-3.139-0.078l-0.55-1.184l-0.628-1.418L75.159,345.34L75.159,345.34z M77.038,345.34l1.179-0.631l3.451,2.051
	l2.98,1.182l-0.862,0.631l-4.395-0.236l-1.568-1.576L77.038,345.34L77.038,345.34z M97.127,364.655l1.726,2.287l0.785,0.945
	l1.491,0.552l0.549-1.419l-0.941-1.734l-2.589-1.971l-1.021,0.158L97.127,364.655L97.127,364.655z M95.715,373.09l1.726,3.074
	l1.177,1.893l-1.411,0.236l-1.257-1.186c0,0-0.704-1.419-0.704-1.812c0-0.396,0-2.129,0-2.129L95.715,373.09z"/>
<path id="UT_1_" class="state" fill="#CCCCCC" stroke="#FFFFFF" stroke-width="2" stroke-miterlimit="10" d="M274.134,319.862l-24.854-4.014
	l-26.409-4.459l-32.524-6.028l2.009-10.026l3.107-14.828l3.218-16.166l2.108-13.267l1.887-8.696l3.662-19.956l3.438-17.058
	l1.082-5.438l12.347,2.202l11.649,2.007l9.987,1.784l8.101,1.338l4.661,0.78l-1.597,10.368l-1.621,11.595l6.333,0.905l16.394,2.229
	l8.905,1.147l-3.002,21.582l-3.105,21.852l-3.645,27.292l-1.461,10.834L274.134,319.862L274.134,319.862z"/>
<path id="CO_1_" class="state" fill="#CCCCCC" stroke="#FFFFFF" stroke-width="2" stroke-miterlimit="10" d="M392.422,331.456l3.994-64.213
	l1.554-21.854l-32.401-2.675l-23.747-2.007l-36.173-4.014l-20.084-2.453l-2.552,21.628l-3.105,21.852l-3.645,27.293l-1.461,10.834
	l-0.557,3.791l33.4,4.014l35.857,4.316l31.804,2.148l6.463,0.67l11.097,0.557"/>
<path id="OR_1_" class="state" fill="#CCCCCC" stroke="#FFFFFF" stroke-width="2" stroke-miterlimit="10" d="M164.613,189.422l4.327-17.615
	l4.219-17.28l1.332-4.125l2.439-5.797l-1.222-2.229l-2.44,0.111l-0.775-1.003l0.443-1.115l0.333-3.01l4.328-5.351l1.775-0.446
	l1.108-1.115l0.556-3.122l0.889-0.669l3.772-5.688l3.771-4.237l0.222-3.679l-3.329-2.562l-1.018-4.085l-13.629-3.496l-14.646-3.456
	l-14.979,0.111l-0.444-1.337l-5.324,2.006l-4.328-0.557l-2.33-1.561l-1.223,0.669l-4.55-0.223l-1.664-1.338l-5.104-2.006
	l-0.777,0.111l-4.217-1.449l-1.887,1.784l-5.992-0.334l-5.771-4.014l0.666-0.78l0.224-7.581l-2.22-3.791l-3.995-0.558l-0.666-2.453
	l-2.285-0.455l-5.629,2.008l-2.197,6.307l-3.139,9.775l-3.14,6.307l-4.865,13.717l-6.276,13.244l-7.846,12.298l-1.884,2.838
	l-0.785,8.356l-1.255,5.833l2.162,4.379l6.845,2.352l11.097,2.898l7.323,2.007l12.205,4.014l13.095,3.345l13.095,3.791
	 M164.329,189.816l-45.545-10.788l32.623,7.941l13.315,2.898"/>
<path id="SD_1_" class="state" fill="#CCCCCC" stroke="#FFFFFF" stroke-width="2" stroke-miterlimit="10" d="M487.523,215.575l-0.926-1.993
	l-1.632-2.754l1.772-4.237l1.331-5.574l-2.662-2.007l-0.441-2.676l0.888-2.452h1.775l0.44-6.689l-0.222-29.655l-0.443-2.899
	l-3.993-3.344l-1.108-1.784v-1.561l1.997-1.561l1.331-1.338l0.333-3.122l-56.48-1.561l-54.526-3.791l-0.744,5.149l-1.565,15.476
	l-1.306,17.503l-1.556,25.084l15.093,1.004l19.526,1.115l17.312,1.115l23.081,1.115l10.431-0.446l1.997,2.229l4.66,2.899l1.11,0.892
	l4.216-1.338l3.771-0.446l2.663-0.223l1.775,1.338l4.882,1.561l2.886,1.561l0.443,1.561l0.888,2.007h1.775L487.523,215.575
	L487.523,215.575z"/>
<path id="NE_1_" class="state" fill="#CCCCCC" stroke="#FFFFFF" stroke-width="2" stroke-miterlimit="10" d="M498.947,257.206l1.331,2.453
	l-0.222,2.23l2.441,3.79l3.104,4.014h-5.992l-42.832-0.446l-39.278-1.338l-21.193-0.78l1.664-21.74l-32.401-2.676l4.218-42.922
	l15.093,1.003l19.526,1.115l17.312,1.115l23.081,1.115l10.431-0.446l1.997,2.23l4.66,2.898l1.109,0.892l4.217-1.338l3.771-0.446
	l2.663-0.223l1.775,1.338l4.882,1.561l2.886,1.561l0.443,1.561l0.888,2.007h1.775l1.554-0.112l1.109,5.24l2.661,7.355l0.89,4.683
	l2.22,3.567l0.666,5.128l1.553,4.014l0.226,6.466l1.881,5.365"/>
<path id="MS_1_" class="state" fill="#CCCCCC" stroke="#FFFFFF" stroke-width="2" stroke-miterlimit="10" d="M634.943,472.063l-1.128,1.225h-5.021
	l-1.412-0.787l-2.04-0.316l-6.591,1.896l-1.729-0.789l-2.511,4.1l-1.07,0.762l-1.091-2.43l-1.109-3.791l-3.328-3.119l1.108-7.357
	l-0.666-0.893l-1.772,0.223l-7.989,0.67l-23.524,0.668l-0.441-1.561l0.666-7.807l3.328-6.02l5.104-8.918l-0.888-2.012h1.106
	l0.666-3.117l-2.22-1.783l0.224-1.785l-1.997-4.459l-0.276-5.213l1.332-2.592l-0.391-4.236l-1.331-2.898l1.331-1.338l-1.331-2.006
	l0.442-1.785l0.889-6.02l2.887-2.678l-0.666-2.007l3.552-5.13l2.663-0.893v-2.453l-0.666-1.336l2.663-5.129l2.663-1.115l0.104-3.328
	l8.422-0.073l23.385-1.894l5.326-0.225l0.009,6.214l0.155,16.24l-0.783,30.271l-0.156,13.717l2.668,18.289L634.943,472.063
	L634.943,472.063z"/>
<path id="IN_1_" class="state" fill="#CCCCCC" stroke="#FFFFFF" stroke-width="2" stroke-miterlimit="10" d="M628.325,311.049l-0.156-3.783
	l0.472-4.416l2.196-2.838l1.727-3.783l2.511-4.1l-0.471-5.676l-1.726-2.68l-0.314-3.153l0.785-5.361l-0.471-6.78l-1.258-15.609
	l-1.256-14.978l-0.939-11.431l2.979,0.868l1.412,0.946l1.102-0.315l2.037-1.892l2.746-1.577l4.944-0.158l21.343-2.207l5.963-0.631
	l0.156,1.104l1.412,14.348l1.727,13.402l2.514,22.862l0.471,5.518l-0.471,2.208l1.412,1.419l0.312,1.892l-2.667,1.892l-3.767,1.734
	l-2.668,0.315l-0.474,4.415l-4.551,3.784l-2.824,3.469l0.313,2.207l-0.784,2.05h-4.551l-1.102-1.576l-1.099,0.787l-2.825,1.578
	l0.157,3.311l-2.04,0.475l-0.784-1.104l-1.884-1.576l-2.824,1.418l-1.727,3.154l-1.729-0.789l-1.412-1.894l-3.453,0.476
	l-5.646,0.945L628.325,311.049z"/>
<path id="IL_1_" class="state" fill="#CCCCCC" stroke="#FFFFFF" stroke-width="2" stroke-miterlimit="10" d="M628.167,310.891v-3.625l0.471-4.416
	l2.197-2.838l1.726-3.783l2.511-4.1l-0.471-5.676l-1.727-2.68l-0.313-3.153l0.785-5.361l-0.471-6.78l-1.259-15.609l-1.254-14.978
	l-0.785-11.352l-1.256-0.788l-0.785-2.522l-1.256-3.626l-1.566-1.734l-1.413-2.522l-0.229-5.354l-9.609,1.28l-26.409,1.672
	l-8.437-0.418l0.225,2.313l2.22,0.669l0.888,1.115l0.443,1.784l3.771,3.345l0.664,2.229l-0.664,3.345l-1.773,3.567l-0.666,2.453
	l-2.221,1.784l-1.774,0.669l-5.104,1.338l-0.664,1.783l-0.666,2.007l0.666,1.338l1.773,1.561l-0.223,4.013l-1.775,1.562
	l-0.665,1.561v2.676l-1.772,0.446l-1.557,1.115l-0.222,1.338l0.222,2.007l-1.665,1.282l-0.998,2.731l0.443,3.567l2.22,7.135
	l7.104,7.358l5.326,3.567l-0.224,4.237l0.89,1.338l6.215,0.446l2.662,1.338l-0.666,3.567l-2.221,5.796l-0.666,3.121l2.223,3.791
	l6.214,5.129l4.438,0.668l1.997,4.904l1.997,3.121l-0.888,2.896l1.554,4.016l1.774,2.008l2.879-0.329l0.558-2l2.197-1.733
	l2.04-0.631l2.667,1.262l3.452,1.263l1.099-0.315l0.157-2.207l-1.256-2.365l0.312-2.207l1.885-1.418l2.512-0.631l1.566-0.631
	l-0.781-1.734l-0.629-1.893l1.1-0.787L628.167,310.891L628.167,310.891z"/>
<path id="MN_1_" class="state" fill="#CCCCCC" stroke="#FFFFFF" stroke-width="2" stroke-miterlimit="10" d="M485.854,141.929l-0.444-8.25
	l-1.772-7.135l-1.775-13.156l-0.44-9.588l-1.775-3.344l-1.554-4.906V85.517l0.666-3.791l-1.771-5.317l29.25,0.034l0.313-8.041
	l0.628-0.157l2.196,0.473l1.884,0.789l0.784,5.361l1.41,5.991l1.568,1.576h4.708l0.314,1.419l6.12,0.315v2.05h4.706l0.312-1.261
	l1.1-1.104l2.195-0.631l1.256,0.946h2.824l3.77,2.523l5.179,2.365l2.354,0.473l0.473-0.946l1.413-0.473l0.471,2.838l2.511,1.261
	l0.471-0.473l1.258,0.157v2.05l2.511,0.946h2.979l1.57-0.789l3.138-3.153l2.514-0.473l0.782,1.734l0.474,1.262h0.938l0.941-0.789
	l8.631-0.315l1.727,2.996h0.63l0.69-1.058l4.312-0.361l-0.598,2.223l-3.821,1.792l-8.977,3.96l-4.636,1.958l-2.981,2.522
	l-2.354,3.469l-2.197,3.784l-1.727,0.788l-4.396,4.888l-1.255,0.158l-3.296,2.996l0.668,0.53l-2.734,2.64l-0.222,2.676v8.25
	l-1.109,1.561l-5.104,3.791l-2.221,5.797l0.442,0.223l2.441,2.007l0.665,3.122l-1.775,3.122v3.791l0.444,6.466l2.885,2.898h3.329
	l1.773,3.122l3.328,0.446l3.772,5.575l6.88,4.013l1.997,2.676l0.889,7.358h-3.995l-17.53,0.669l-48.157,0.669h-11.208l0.556-6.688
	l-0.223-29.655l-0.443-2.899l-3.994-3.344l-1.107-1.784v-1.561l1.997-1.561l1.332-1.337L485.854,141.929L485.854,141.929z"/>
<path id="OK_1_" class="state" fill="#CCCCCC" stroke="#FFFFFF" stroke-width="2" stroke-miterlimit="10" d="M392.145,331.233l-10.376-0.445
	l-6.241-0.475l0.25,0.195l-0.524,11.26l21.166,1.061l30.183,1.113l-1.332,23.189l-0.442,17.393l0.224,1.561l4.217,3.567l1.997,1.114
	l0.666-0.223l0.666-2.006l1.331,1.78h1.998v-1.338l2.663,1.338l-0.444,3.791l3.995,0.226l2.439,1.115l3.994,0.668l2.44,1.785
	l2.219-2.011l3.329,0.673l2.441,3.344h0.888v2.229l2.22,0.668l2.221-2.229l1.773,0.67h2.441l0.888,2.453l4.66,1.783l1.332-0.668
	l1.772-4.02h1.109l1.109,2.006l3.993,0.67l3.553,1.344l2.885,0.891l1.774-0.891l0.666-2.453h4.218l1.997,0.891l2.663-2.006h1.107
	l0.665,1.561h3.995l1.554-2.006l1.775,0.445l1.997,2.453l3.104,1.783l3.106,0.893l2.663,1.561l-0.223-37.236l-1.332-10.703v-8.027
	l-1.555-6.688l-0.441-6.689l-0.225-4.348l-12.872,0.78l-45.051-0.446l-43.721-2.006L392.145,331.233L392.145,331.233z"/>
<path fill="#CCCCCC" stroke="#FFFFFF" stroke-width="2" stroke-miterlimit="10" d="M825.896,273.918l-1.805,0.473l1.099,2.444
	l0.156,1.734l1.1,1.813c0,0,0.863-0.867,0.863-1.182c0-0.315-0.707-2.996-0.707-2.996L825.896,273.918z"/>
<path fill="#CCCCCC" stroke="#FFFFFF" stroke-width="2" stroke-miterlimit="10" d="M840.017,264.854l-5.961,1.26l-4.865,0.158
	l-1.566-6.149l-2.04-9.46l-2.196-5.519l-1.251-4.29l-8.058,1.583l-14.44,2.753l-36.354,7.364l1.1,4.888l0.939,5.519l0.312-0.315
	l2.04-2.365l2.196-2.996l2.354-0.157l1.412-1.419l1.729-2.523l1.256,0.63l2.822-0.315l2.512-2.05l1.947-1.417l1.791-0.473
	l1.599,1.102l2.823,1.419l1.885,1.734l1.177,1.498l4.001,1.655v2.838l5.336,1.261l1.883,1.261l0.941-1.892l2.195,1.577l-1.41,3.153
	l-0.314,2.68l-1.726,2.523v2.05l0.628,1.734l4.915,1.322l4.185-0.06l2.982,0.946l2.039,0.312l0.939-2.049l-1.412-2.05v-1.734
	l-2.354-2.049l-2.04-5.361l1.256-5.203l-0.157-2.049l-1.256-1.262c0,0,1.413-1.576,1.413-2.207s0.471-2.05,0.471-2.05l1.884-1.261
	l1.885-1.577l0.472,0.946l-1.413,1.577l-1.255,3.626l0.312,1.104l1.729,0.315l0.471,5.361l-2.04,0.946l0.313,3.469l0.471-0.158
	l1.1-1.892l1.568,1.734l-1.568,1.261l-0.312,3.311l2.511,3.312l3.768,0.473l1.568-0.789l3.14,5.045l1.728,0.473v3.469l-2.197,4.729
	l-0.471,6.78l1.412,3.311l1.413,0.158l1.884-4.099l0.783-3.469l0.156-6.938l2.98-4.73l2.039-6.78v-5.515L840.017,264.854
	L840.017,264.854z"/>
<g>
	<path d="M867.781,559.008v2.857c-0.028,0.848-0.198,1.611-0.51,2.263c-0.254,0.565-0.65,1.103-1.215,1.526
		c-0.566,0.452-1.33,0.707-2.348,0.707c-1.019,0-1.81-0.255-2.376-0.707c-0.565-0.424-0.934-0.961-1.188-1.526
		c-0.312-0.651-0.481-1.415-0.509-2.263v-12.245c0.027-0.82,0.197-1.584,0.509-2.234c0.254-0.565,0.622-1.131,1.188-1.556
		c0.566-0.424,1.357-0.707,2.376-0.707c1.018,0,1.781,0.283,2.348,0.707c0.564,0.425,0.961,0.99,1.215,1.556
		c0.312,0.65,0.481,1.414,0.51,2.234v2.855h-2.857v-2.855c0-0.566-0.141-0.962-0.452-1.302c-0.142-0.141-0.396-0.226-0.706-0.226
		c-0.537,0-0.793,0.396-0.934,0.764c-0.085,0.226-0.113,0.48-0.142,0.764v12.245c0.028,0.594,0.198,0.99,0.481,1.301
		c0.141,0.142,0.339,0.226,0.594,0.226c0.65,0,0.904-0.339,1.046-0.764c0.085-0.197,0.112-0.452,0.112-0.763v-2.857H867.781z"/>
	<path d="M869.901,545.35h3.056v17.958H877v2.828h-7.099V545.35z"/>
	<path d="M886.474,561.866c-0.028,0.848-0.198,1.611-0.51,2.263c-0.254,0.565-0.65,1.103-1.215,1.526
		c-0.566,0.452-1.33,0.707-2.348,0.707c-1.019,0-1.81-0.255-2.376-0.707c-0.565-0.424-0.934-0.961-1.188-1.526
		c-0.312-0.651-0.481-1.415-0.509-2.263v-12.245c0.027-0.82,0.197-1.584,0.509-2.234c0.254-0.565,0.622-1.131,1.188-1.556
		c0.566-0.424,1.357-0.707,2.376-0.707c1.018,0,1.781,0.283,2.348,0.707c0.564,0.425,0.961,0.99,1.215,1.556
		c0.312,0.65,0.481,1.414,0.51,2.234V561.866z M883.419,549.621c0-0.566-0.112-0.962-0.396-1.302
		c-0.142-0.141-0.367-0.226-0.621-0.226c-0.538,0-0.792,0.396-0.905,0.764c-0.085,0.226-0.113,0.48-0.113,0.764v12.245
		c0,0.594,0.141,0.99,0.424,1.301c0.143,0.142,0.34,0.226,0.595,0.226c0.537,0,0.791-0.339,0.905-0.764
		c0.085-0.197,0.112-0.452,0.112-0.763V549.621z"/>
	<path d="M893.884,550.921c0-0.679-0.029-1.442-0.227-2.036c-0.198-0.566-0.509-0.961-0.99-0.961
		c-0.791,0.027-1.046,0.848-1.046,2.063c0,0.707,0.311,1.442,0.764,2.233c0.452,0.793,1.046,1.612,1.64,2.49
		c0.708,1.046,1.414,2.12,1.951,3.167c0.538,1.047,0.905,2.12,0.905,3.252c0,1.386-0.227,2.687-0.876,3.648
		c-0.651,0.961-1.698,1.583-3.366,1.583c-1.951,0-3.054-0.734-3.676-1.866c-0.623-1.131-0.764-2.63-0.764-4.186l2.997-0.282
		c0,0.876,0.028,1.753,0.255,2.403c0.197,0.679,0.537,1.131,1.188,1.131c0.904,0,1.245-0.961,1.245-2.291
		c0-0.678-0.341-1.47-0.793-2.29c-0.254-0.396-0.509-0.819-0.791-1.244c-0.594-0.848-1.245-1.811-1.924-2.856
		c-0.679-1.047-1.188-2.121-1.499-3.224c-0.168-0.538-0.254-1.103-0.254-1.669c0-1.131,0.254-2.348,0.905-3.28
		c0.65-0.904,1.64-1.556,3.083-1.584c1.837-0.028,2.912,0.735,3.506,1.838c0.594,1.132,0.764,2.518,0.764,3.678L893.884,550.921z"/>
	<path d="M898.804,545.35h6.984v3.139h-3.93v5.459h2.827v3.336h-2.827v5.714h3.93v3.139h-6.984V545.35z"/>
	<path d="M917.467,566.136l-1.951-13.066l-0.113-0.876h-0.169v13.942h-2.829V545.35h3.734l1.81,9.502l0.142,1.103h0.056l0.142-1.103
		l1.81-9.502h3.733v20.786h-2.828v-13.942h-0.17l-0.113,0.876l-1.951,13.066H917.467z"/>
	<path d="M925.526,566.136l3.14-20.786h3.732l3.139,20.786h-2.969l-0.565-4.242h-2.941l-0.565,4.242H925.526z M930.703,552.109
		l-0.086-0.537h-0.17l-0.084,0.537l-0.877,6.562h2.093L930.703,552.109z"/>
	<path d="M937.234,545.35h3.053c1.33,0,2.659,0.339,3.678,1.301c1.018,0.962,1.696,2.546,1.696,4.921
		c0,2.376-0.679,3.931-1.696,4.892c-1.019,0.963-2.348,1.357-3.678,1.357v8.315h-3.053V545.35z M940.287,554.711
		c0.935,0,1.528-0.17,1.868-0.651c0.339-0.452,0.424-1.216,0.424-2.375c0-1.16-0.085-1.979-0.424-2.488
		c-0.34-0.51-0.934-0.736-1.868-0.736V554.711z"/>
</g>
</svg>
